<svg width="157" height="20" viewBox="0 0 157 20" fill="none" xmlns="http://www.w3.org/2000/svg">
<g clip-path="url(#clip0_187_772)">
<g clip-path="url(#clip1_187_772)">
<path d="M157 9.78363H88.3271V10.2157H157V9.78363Z" fill="#E6D9A4"/>
<path d="M68.6733 9.78363H0V10.2157H68.6733V9.78363Z" fill="#E6D9A4"/>
<path d="M70.7308 12.2643C69.4768 12.2643 68.4563 11.2482 68.4563 9.99964C68.4563 8.75104 69.4768 7.73502 70.7308 7.73502C72.2959 7.73502 73.4169 9.81026 73.4639 9.89883L73.5174 9.99964L73.4639 10.1005C73.4169 10.189 72.2951 12.2635 70.7308 12.2635V12.2643ZM70.7308 8.16706C69.7161 8.16706 68.8902 8.98938 68.8902 9.99964C68.8902 11.0099 69.7161 11.8322 70.7308 11.8322C71.859 11.8322 72.7869 10.3978 73.0227 9.99964C72.7869 9.60144 71.859 8.16706 70.7308 8.16706Z" fill="#E6D9A4"/>
<path d="M86.2692 12.2643C84.7048 12.2643 83.5831 10.189 83.5361 10.1012L83.4826 10.0004L83.5361 9.89956C83.5831 9.811 84.7048 7.73575 86.2692 7.73575C87.5232 7.73575 88.5437 8.75177 88.5437 10.0004C88.5437 11.249 87.5232 12.265 86.2692 12.265V12.2643ZM83.9773 9.99965C84.2131 10.3979 85.1409 11.8322 86.2692 11.8322C87.2838 11.8322 88.1098 11.0099 88.1098 9.99965C88.1098 8.98939 87.2838 8.16707 86.2692 8.16707C85.1409 8.16707 84.2131 9.60145 83.9773 9.99965Z" fill="#E6D9A4"/>
<path d="M70.7308 12.2643C69.4768 12.2643 68.4563 11.2482 68.4563 9.99964C68.4563 8.75104 69.4768 7.73502 70.7308 7.73502C72.2959 7.73502 73.4169 9.81026 73.4639 9.89883L73.5174 9.99964L73.4639 10.1005C73.4169 10.189 72.2951 12.2635 70.7308 12.2635V12.2643ZM70.7308 8.16706C69.7161 8.16706 68.8902 8.98938 68.8902 9.99964C68.8902 11.0099 69.7161 11.8322 70.7308 11.8322C71.859 11.8322 72.7869 10.3978 73.0227 9.99964C72.7869 9.60144 71.859 8.16706 70.7308 8.16706Z" fill="#E6D9A4"/>
<path d="M86.2692 12.2643C84.7048 12.2643 83.5831 10.189 83.5361 10.1012L83.4826 10.0004L83.5361 9.89956C83.5831 9.811 84.7048 7.73575 86.2692 7.73575C87.5232 7.73575 88.5437 8.75177 88.5437 10.0004C88.5437 11.249 87.5232 12.265 86.2692 12.265V12.2643ZM83.9773 9.99965C84.2131 10.3979 85.1409 11.8322 86.2692 11.8322C87.2838 11.8322 88.1098 11.0099 88.1098 9.99965C88.1098 8.98939 87.2838 8.16707 86.2692 8.16707C85.1409 8.16707 84.2131 9.60145 83.9773 9.99965Z" fill="#E6D9A4"/>
<path d="M78.5004 5.0398L78.3991 4.98651C78.3102 4.93971 76.2258 3.82287 76.2258 2.26536C76.2258 1.01675 77.2463 0.000732422 78.5004 0.000732422C79.7544 0.000732422 80.7749 1.01675 80.7749 2.26536C80.7749 3.8236 78.6906 4.93971 78.6016 4.98651L78.5004 5.0398ZM78.5004 0.432056C77.4857 0.432056 76.6598 1.25438 76.6598 2.26464C76.6598 3.38795 78.1004 4.3118 78.5004 4.54655C78.9003 4.3118 80.3409 3.38795 80.3409 2.26464C80.3409 1.25438 79.515 0.432056 78.5004 0.432056Z" fill="#E6D9A4"/>
<path d="M78.5004 20C77.2463 20 76.2258 18.984 76.2258 17.7354C76.2258 16.1772 78.3102 15.061 78.3991 15.0142L78.5004 14.961L78.6016 15.0142C78.6906 15.061 80.7749 16.1779 80.7749 17.7354C80.7749 18.984 79.7544 20 78.5004 20ZM78.5004 15.4535C78.1004 15.6882 76.6598 16.6121 76.6598 17.7354C76.6598 18.7457 77.4857 19.568 78.5004 19.568C79.515 19.568 80.3409 18.7457 80.3409 17.7354C80.3409 16.6121 78.9003 15.6882 78.5004 15.4535Z" fill="#E6D9A4"/>
<path d="M78.5004 15.4211C78.4447 15.4211 78.389 15.4002 78.347 15.3577L73.1196 10.153C73.0791 10.1127 73.056 10.0573 73.056 10.0004C73.056 9.94349 73.0791 9.88804 73.1196 9.84772L78.347 4.64304C78.428 4.56239 78.5727 4.56239 78.6537 4.64304L83.8811 9.84772C83.9216 9.88804 83.9447 9.94349 83.9447 10.0004C83.9447 10.0573 83.9216 10.1127 83.8811 10.153L78.6537 15.3577C78.611 15.4002 78.5561 15.4211 78.5004 15.4211ZM73.5796 9.99965L78.5004 14.899L83.4211 9.99965L78.5004 5.10028L73.5796 9.99965Z" fill="#E6D9A4"/>
<path d="M80.2423 13.6857C80.1866 13.6857 80.1309 13.6648 80.089 13.6223L74.8616 8.41763C74.7769 8.33338 74.7769 8.19657 74.8616 8.11232C74.9462 8.02807 75.0836 8.02807 75.1682 8.11232L80.3956 13.317C80.4802 13.4012 80.4802 13.5381 80.3956 13.6223C80.353 13.6648 80.298 13.6857 80.2423 13.6857Z" fill="#E6D9A4"/>
<path d="M81.9855 11.9511C81.9298 11.9511 81.8742 11.9302 81.8322 11.8877L76.6048 6.68301C76.5202 6.59876 76.5202 6.46195 76.6048 6.3777C76.6894 6.29345 76.8268 6.29345 76.9114 6.3777L82.1389 11.5824C82.2235 11.6666 82.2235 11.8034 82.1389 11.8877C82.0962 11.9302 82.0412 11.9511 81.9855 11.9511Z" fill="#E6D9A4"/>
<path d="M75.0149 11.9511C74.9592 11.9511 74.9035 11.9302 74.8616 11.8877C74.7769 11.8034 74.7769 11.6666 74.8616 11.5824L80.089 6.3777C80.1736 6.29345 80.311 6.29345 80.3956 6.3777C80.4802 6.46195 80.4802 6.59876 80.3956 6.68301L75.1682 11.8877C75.1255 11.9302 75.0706 11.9511 75.0149 11.9511Z" fill="#E6D9A4"/>
<path d="M76.7571 13.6857C76.7014 13.6857 76.6457 13.6648 76.6037 13.6223C76.5191 13.5381 76.5191 13.4012 76.6037 13.317L81.8312 8.11232C81.9158 8.02807 82.0532 8.02807 82.1378 8.11232C82.2224 8.19657 82.2224 8.33338 82.1378 8.41763L76.9104 13.6223C76.8677 13.6648 76.8128 13.6857 76.7571 13.6857Z" fill="#E6D9A4"/>
<path d="M75.0113 8.48101C74.9556 8.48101 74.8999 8.46012 74.8579 8.41764L74.2562 7.81854C73.6871 7.25184 73.6871 6.33015 74.2562 5.76345C74.5318 5.48911 74.8984 5.33789 75.2883 5.33789C75.6781 5.33789 76.0447 5.48911 76.3203 5.76345L76.922 6.36255C77.0066 6.4468 77.0066 6.58362 76.922 6.66786C76.8374 6.75211 76.7 6.75211 76.6154 6.66786L76.0137 6.06876C75.8198 5.87578 75.5624 5.76993 75.2883 5.76993C75.0142 5.76993 74.7567 5.8765 74.5629 6.06876C74.1629 6.46696 74.1629 7.11503 74.5629 7.51323L75.1646 8.11233C75.2492 8.19658 75.2492 8.33339 75.1646 8.41764C75.1219 8.46012 75.0669 8.48101 75.0113 8.48101Z" fill="#E6D9A4"/>
<path d="M81.994 8.48101C81.9383 8.48101 81.8826 8.46012 81.8407 8.41764C81.756 8.33339 81.756 8.19658 81.8407 8.11233L82.4424 7.51323C82.6362 7.32025 82.7425 7.0639 82.7425 6.791C82.7425 6.51809 82.6355 6.26174 82.4424 6.06876C82.2486 5.87578 81.9911 5.76993 81.717 5.76993C81.4429 5.76993 81.1854 5.8765 80.9916 6.06876L80.3899 6.66786C80.3053 6.75211 80.1679 6.75211 80.0832 6.66786C79.9986 6.58362 79.9986 6.4468 80.0832 6.36255L80.685 5.76345C80.9605 5.48911 81.3272 5.33789 81.717 5.33789C82.1068 5.33789 82.4735 5.48911 82.749 5.76345C83.0246 6.0378 83.1764 6.40288 83.1764 6.791C83.1764 7.17911 83.0246 7.54419 82.749 7.81854L82.1473 8.41764C82.1046 8.46012 82.0497 8.48101 81.994 8.48101Z" fill="#E6D9A4"/>
<path d="M75.2883 14.6621C74.8984 14.6621 74.5318 14.5109 74.2562 14.2365C73.6871 13.6698 73.6871 12.7481 74.2562 12.1815L74.8579 11.5824C74.9426 11.4981 75.08 11.4981 75.1646 11.5824C75.2492 11.6666 75.2492 11.8034 75.1646 11.8877L74.5629 12.4868C74.1629 12.885 74.1629 13.533 74.5629 13.9312C74.7567 14.1242 75.0142 14.2301 75.2883 14.2301C75.5624 14.2301 75.8198 14.1235 76.0137 13.9312L76.6154 13.3321C76.7 13.2479 76.8374 13.2479 76.922 13.3321C77.0066 13.4164 77.0066 13.5532 76.922 13.6374L76.3203 14.2365C76.0447 14.5109 75.6781 14.6621 75.2883 14.6621Z" fill="#E6D9A4"/>
<path d="M81.718 14.6621C81.3282 14.6621 80.9615 14.5109 80.6859 14.2366L80.0842 13.6375C79.9996 13.5532 79.9996 13.4164 80.0842 13.3322C80.1688 13.2479 80.3062 13.2479 80.3909 13.3322L80.9926 13.9313C81.1864 14.1242 81.4439 14.2301 81.718 14.2301C81.9921 14.2301 82.2495 14.1235 82.4434 13.9313C82.6372 13.7383 82.7435 13.4819 82.7435 13.209C82.7435 12.9361 82.6365 12.6798 82.4434 12.4868L81.8416 11.8877C81.757 11.8034 81.757 11.6666 81.8416 11.5824C81.9263 11.4981 82.0637 11.4981 82.1483 11.5824L82.75 12.1815C83.0255 12.4558 83.1774 12.8209 83.1774 13.209C83.1774 13.5971 83.0255 13.9622 82.75 14.2366C82.4745 14.5109 82.1078 14.6621 81.718 14.6621Z" fill="#E6D9A4"/>
</g>
</g>
<defs>
<clipPath id="clip0_187_772">
<rect width="157" height="20" fill="white"/>
</clipPath>
<clipPath id="clip1_187_772">
<rect width="157" height="20" fill="white"/>
</clipPath>
</defs>
</svg>
