<svg width="90" height="68" viewBox="0 0 90 68" fill="none" xmlns="http://www.w3.org/2000/svg">
<g filter="url(#filter0_d_149_465)">
<mask id="path-1-outside-1_149_465" maskUnits="userSpaceOnUse" x="10" y="6" width="70" height="48" fill="black">
<rect fill="white" x="10" y="6" width="70" height="48"/>
<path d="M21.6844 7.95C22.451 7.31666 22.951 7.45 23.1844 8.35C23.3177 8.88333 23.3177 9.55 23.1844 10.35C22.9177 11.85 22.7844 12.7167 22.7844 12.95C22.7844 13.1833 22.9177 13.4167 23.1844 13.65C23.5844 14.0167 24.301 14.4167 25.3344 14.85C25.4677 14.9167 25.701 15.0333 26.0344 15.2C26.401 15.3333 26.6344 15.4167 26.7344 15.45C27.1344 15.6167 27.6177 15.8 28.1844 16C28.8177 16.2333 29.1844 16.3833 29.2844 16.45C29.3844 16.5167 29.7344 16.6667 30.3344 16.9C30.901 17.1 31.7177 17.45 32.7844 17.95C33.751 18.45 34.4677 18.75 34.9344 18.85C35.6344 19.0167 35.9677 19.2167 35.9344 19.45C35.9344 19.5833 35.7844 19.7 35.4844 19.8C35.251 19.8667 34.4177 19.8333 32.9844 19.7C31.5844 19.5333 30.6677 19.3833 30.2344 19.25C30.1677 19.2167 29.501 19.05 28.2344 18.75C27.101 18.5167 25.751 18.1333 24.1844 17.6C24.051 17.5333 23.8844 17.4667 23.6844 17.4C22.551 17 21.8677 16.8167 21.6344 16.85C21.4344 16.85 21.201 17.1 20.9344 17.6C20.8677 17.6667 20.8177 17.7333 20.7844 17.8C19.7844 19.5333 18.6677 21.5667 17.4344 23.9C16.3344 26 15.5677 27.3333 15.1344 27.9C14.7344 28.4333 14.3177 28.6667 13.8844 28.6C13.751 28.5667 13.651 28.5167 13.5844 28.45C13.5177 28.35 13.501 28.2 13.5344 28C13.5677 27.8 13.651 27.5667 13.7844 27.3C13.9177 27.0333 14.101 26.7 14.3344 26.3C14.8344 25.4333 15.5344 23.9333 16.4344 21.8C17.2344 19.9333 17.751 18.7167 17.9844 18.15C19.4177 14.7833 20.251 12.3333 20.4844 10.8C20.7177 9.36666 21.1177 8.41666 21.6844 7.95ZM39.6844 20.45C40.4177 20.0833 41.001 19.8 41.4344 19.6C41.901 19.3667 42.2844 19.2167 42.5844 19.15C42.8844 19.05 43.101 19.0167 43.2344 19.05C43.3677 19.0833 43.451 19.1833 43.4844 19.35C43.5177 19.5833 42.701 20.2833 41.0344 21.45C39.401 22.6167 37.7177 23.6667 35.9844 24.6C35.8844 24.6333 35.3344 24.9333 34.3344 25.5C33.6344 25.9 33.2677 26.1 33.2344 26.1C33.201 26.1 32.2844 26.6333 30.4844 27.7C28.8177 28.7 27.301 29.5833 25.9344 30.35C22.801 32.0833 19.5344 34.0667 16.1344 36.3C13.0344 38.3333 11.5677 38.55 11.7344 36.95C11.7677 36.8167 11.801 36.6833 11.8344 36.55C11.9344 36.0167 12.7844 35.1667 14.3844 34C15.9844 32.8333 18.001 31.5833 20.4344 30.25C20.6344 30.15 20.9844 29.9667 21.4844 29.7C22.0177 29.4333 22.3844 29.2333 22.5844 29.1C22.8177 29 23.601 28.5833 24.9344 27.85C25.2677 27.65 26.1177 27.1833 27.4844 26.45C28.451 25.9167 29.9177 25.1667 31.8844 24.2C33.8844 23.2333 35.1844 22.6167 35.7844 22.35C36.651 21.9833 37.951 21.35 39.6844 20.45ZM38.3844 27.15C39.1177 26.7833 39.6177 26.6 39.8844 26.6C40.1844 26.5667 40.451 26.7167 40.6844 27.05C40.8844 27.2833 41.0177 27.7333 41.0844 28.4C41.151 29.0667 41.301 31.3 41.5344 35.1C41.6677 37.2 41.7844 38.5167 41.8844 39.05C41.9844 39.65 42.0844 40.5667 42.1844 41.8C42.251 42.9333 42.3344 43.8833 42.4344 44.65C42.6344 45.9167 42.7677 47.4833 42.8344 49.35C42.9344 51.2167 42.9177 52.2 42.7844 52.3C42.151 52.6667 41.7344 51.9667 41.5344 50.2C41.501 49.9667 41.4677 49.7333 41.4344 49.5C41.3677 48.5333 41.2177 47.4667 40.9844 46.3C39.8177 40.6333 39.1177 35.8833 38.8844 32.05C38.851 30.9167 38.7344 30.35 38.5344 30.35C38.4677 30.35 38.3177 30.4333 38.0844 30.6C37.7844 30.8333 37.601 30.95 37.5344 30.95C37.4344 30.95 37.151 31.1 36.6844 31.4C36.3844 31.6333 35.5177 32.1167 34.0844 32.85C33.3177 33.25 32.3677 33.75 31.2344 34.35C29.4677 35.35 28.301 35.9333 27.7344 36.1C27.201 36.2667 26.8177 36.15 26.5844 35.75C26.3177 35.3167 26.3177 34.8333 26.5844 34.3C26.8844 33.7333 27.3677 33.2833 28.0344 32.95C28.6344 32.6167 31.101 31.2333 35.4344 28.8C35.8344 28.5667 36.8177 28.0167 38.3844 27.15ZM56.45 7.95C57.2167 7.31666 57.7167 7.45 57.95 8.35C58.0833 8.88333 58.0833 9.55 57.95 10.35C57.6833 11.85 57.55 12.7167 57.55 12.95C57.55 13.1833 57.6833 13.4167 57.95 13.65C58.35 14.0167 59.0667 14.4167 60.1 14.85C60.2333 14.9167 60.4667 15.0333 60.8 15.2C61.1667 15.3333 61.4 15.4167 61.5 15.45C61.9 15.6167 62.3833 15.8 62.95 16C63.5833 16.2333 63.95 16.3833 64.05 16.45C64.15 16.5167 64.5 16.6667 65.1 16.9C65.6667 17.1 66.4833 17.45 67.55 17.95C68.5167 18.45 69.2333 18.75 69.7 18.85C70.4 19.0167 70.7333 19.2167 70.7 19.45C70.7 19.5833 70.55 19.7 70.25 19.8C70.0167 19.8667 69.1833 19.8333 67.75 19.7C66.35 19.5333 65.4333 19.3833 65 19.25C64.9333 19.2167 64.2667 19.05 63 18.75C61.8667 18.5167 60.5167 18.1333 58.95 17.6C58.8167 17.5333 58.65 17.4667 58.45 17.4C57.3167 17 56.6333 16.8167 56.4 16.85C56.2 16.85 55.9667 17.1 55.7 17.6C55.6333 17.6667 55.5833 17.7333 55.55 17.8C54.55 19.5333 53.4333 21.5667 52.2 23.9C51.1 26 50.3333 27.3333 49.9 27.9C49.5 28.4333 49.0833 28.6667 48.65 28.6C48.5167 28.5667 48.4167 28.5167 48.35 28.45C48.2833 28.35 48.2667 28.2 48.3 28C48.3333 27.8 48.4167 27.5667 48.55 27.3C48.6833 27.0333 48.8667 26.7 49.1 26.3C49.6 25.4333 50.3 23.9333 51.2 21.8C52 19.9333 52.5167 18.7167 52.75 18.15C54.1833 14.7833 55.0167 12.3333 55.25 10.8C55.4833 9.36666 55.8833 8.41666 56.45 7.95ZM74.45 20.45C75.1833 20.0833 75.7667 19.8 76.2 19.6C76.6667 19.3667 77.05 19.2167 77.35 19.15C77.65 19.05 77.8667 19.0167 78 19.05C78.1333 19.0833 78.2167 19.1833 78.25 19.35C78.2833 19.5833 77.4667 20.2833 75.8 21.45C74.1667 22.6167 72.4833 23.6667 70.75 24.6C70.65 24.6333 70.1 24.9333 69.1 25.5C68.4 25.9 68.0333 26.1 68 26.1C67.9667 26.1 67.05 26.6333 65.25 27.7C63.5833 28.7 62.0667 29.5833 60.7 30.35C57.5667 32.0833 54.3 34.0667 50.9 36.3C47.8 38.3333 46.3333 38.55 46.5 36.95C46.5333 36.8167 46.5667 36.6833 46.6 36.55C46.7 36.0167 47.55 35.1667 49.15 34C50.75 32.8333 52.7667 31.5833 55.2 30.25C55.4 30.15 55.75 29.9667 56.25 29.7C56.7833 29.4333 57.15 29.2333 57.35 29.1C57.5833 29 58.3667 28.5833 59.7 27.85C60.0333 27.65 60.8833 27.1833 62.25 26.45C63.2167 25.9167 64.6833 25.1667 66.65 24.2C68.65 23.2333 69.95 22.6167 70.55 22.35C71.4167 21.9833 72.7167 21.35 74.45 20.45ZM73.15 27.15C73.8833 26.7833 74.3833 26.6 74.65 26.6C74.95 26.5667 75.2167 26.7167 75.45 27.05C75.65 27.2833 75.7833 27.7333 75.85 28.4C75.9167 29.0667 76.0667 31.3 76.3 35.1C76.4333 37.2 76.55 38.5167 76.65 39.05C76.75 39.65 76.85 40.5667 76.95 41.8C77.0167 42.9333 77.1 43.8833 77.2 44.65C77.4 45.9167 77.5333 47.4833 77.6 49.35C77.7 51.2167 77.6833 52.2 77.55 52.3C76.9167 52.6667 76.5 51.9667 76.3 50.2C76.2667 49.9667 76.2333 49.7333 76.2 49.5C76.1333 48.5333 75.9833 47.4667 75.75 46.3C74.5833 40.6333 73.8833 35.8833 73.65 32.05C73.6167 30.9167 73.5 30.35 73.3 30.35C73.2333 30.35 73.0833 30.4333 72.85 30.6C72.55 30.8333 72.3667 30.95 72.3 30.95C72.2 30.95 71.9167 31.1 71.45 31.4C71.15 31.6333 70.2833 32.1167 68.85 32.85C68.0833 33.25 67.1333 33.75 66 34.35C64.2333 35.35 63.0667 35.9333 62.5 36.1C61.9667 36.2667 61.5833 36.15 61.35 35.75C61.0833 35.3167 61.0833 34.8333 61.35 34.3C61.65 33.7333 62.1333 33.2833 62.8 32.95C63.4 32.6167 65.8667 31.2333 70.2 28.8C70.6 28.5667 71.5833 28.0167 73.15 27.15Z"/>
</mask>
<path d="M21.6844 7.95C22.451 7.31666 22.951 7.45 23.1844 8.35C23.3177 8.88333 23.3177 9.55 23.1844 10.35C22.9177 11.85 22.7844 12.7167 22.7844 12.95C22.7844 13.1833 22.9177 13.4167 23.1844 13.65C23.5844 14.0167 24.301 14.4167 25.3344 14.85C25.4677 14.9167 25.701 15.0333 26.0344 15.2C26.401 15.3333 26.6344 15.4167 26.7344 15.45C27.1344 15.6167 27.6177 15.8 28.1844 16C28.8177 16.2333 29.1844 16.3833 29.2844 16.45C29.3844 16.5167 29.7344 16.6667 30.3344 16.9C30.901 17.1 31.7177 17.45 32.7844 17.95C33.751 18.45 34.4677 18.75 34.9344 18.85C35.6344 19.0167 35.9677 19.2167 35.9344 19.45C35.9344 19.5833 35.7844 19.7 35.4844 19.8C35.251 19.8667 34.4177 19.8333 32.9844 19.7C31.5844 19.5333 30.6677 19.3833 30.2344 19.25C30.1677 19.2167 29.501 19.05 28.2344 18.75C27.101 18.5167 25.751 18.1333 24.1844 17.6C24.051 17.5333 23.8844 17.4667 23.6844 17.4C22.551 17 21.8677 16.8167 21.6344 16.85C21.4344 16.85 21.201 17.1 20.9344 17.6C20.8677 17.6667 20.8177 17.7333 20.7844 17.8C19.7844 19.5333 18.6677 21.5667 17.4344 23.9C16.3344 26 15.5677 27.3333 15.1344 27.9C14.7344 28.4333 14.3177 28.6667 13.8844 28.6C13.751 28.5667 13.651 28.5167 13.5844 28.45C13.5177 28.35 13.501 28.2 13.5344 28C13.5677 27.8 13.651 27.5667 13.7844 27.3C13.9177 27.0333 14.101 26.7 14.3344 26.3C14.8344 25.4333 15.5344 23.9333 16.4344 21.8C17.2344 19.9333 17.751 18.7167 17.9844 18.15C19.4177 14.7833 20.251 12.3333 20.4844 10.8C20.7177 9.36666 21.1177 8.41666 21.6844 7.95ZM39.6844 20.45C40.4177 20.0833 41.001 19.8 41.4344 19.6C41.901 19.3667 42.2844 19.2167 42.5844 19.15C42.8844 19.05 43.101 19.0167 43.2344 19.05C43.3677 19.0833 43.451 19.1833 43.4844 19.35C43.5177 19.5833 42.701 20.2833 41.0344 21.45C39.401 22.6167 37.7177 23.6667 35.9844 24.6C35.8844 24.6333 35.3344 24.9333 34.3344 25.5C33.6344 25.9 33.2677 26.1 33.2344 26.1C33.201 26.1 32.2844 26.6333 30.4844 27.7C28.8177 28.7 27.301 29.5833 25.9344 30.35C22.801 32.0833 19.5344 34.0667 16.1344 36.3C13.0344 38.3333 11.5677 38.55 11.7344 36.95C11.7677 36.8167 11.801 36.6833 11.8344 36.55C11.9344 36.0167 12.7844 35.1667 14.3844 34C15.9844 32.8333 18.001 31.5833 20.4344 30.25C20.6344 30.15 20.9844 29.9667 21.4844 29.7C22.0177 29.4333 22.3844 29.2333 22.5844 29.1C22.8177 29 23.601 28.5833 24.9344 27.85C25.2677 27.65 26.1177 27.1833 27.4844 26.45C28.451 25.9167 29.9177 25.1667 31.8844 24.2C33.8844 23.2333 35.1844 22.6167 35.7844 22.35C36.651 21.9833 37.951 21.35 39.6844 20.45ZM38.3844 27.15C39.1177 26.7833 39.6177 26.6 39.8844 26.6C40.1844 26.5667 40.451 26.7167 40.6844 27.05C40.8844 27.2833 41.0177 27.7333 41.0844 28.4C41.151 29.0667 41.301 31.3 41.5344 35.1C41.6677 37.2 41.7844 38.5167 41.8844 39.05C41.9844 39.65 42.0844 40.5667 42.1844 41.8C42.251 42.9333 42.3344 43.8833 42.4344 44.65C42.6344 45.9167 42.7677 47.4833 42.8344 49.35C42.9344 51.2167 42.9177 52.2 42.7844 52.3C42.151 52.6667 41.7344 51.9667 41.5344 50.2C41.501 49.9667 41.4677 49.7333 41.4344 49.5C41.3677 48.5333 41.2177 47.4667 40.9844 46.3C39.8177 40.6333 39.1177 35.8833 38.8844 32.05C38.851 30.9167 38.7344 30.35 38.5344 30.35C38.4677 30.35 38.3177 30.4333 38.0844 30.6C37.7844 30.8333 37.601 30.95 37.5344 30.95C37.4344 30.95 37.151 31.1 36.6844 31.4C36.3844 31.6333 35.5177 32.1167 34.0844 32.85C33.3177 33.25 32.3677 33.75 31.2344 34.35C29.4677 35.35 28.301 35.9333 27.7344 36.1C27.201 36.2667 26.8177 36.15 26.5844 35.75C26.3177 35.3167 26.3177 34.8333 26.5844 34.3C26.8844 33.7333 27.3677 33.2833 28.0344 32.95C28.6344 32.6167 31.101 31.2333 35.4344 28.8C35.8344 28.5667 36.8177 28.0167 38.3844 27.15ZM56.45 7.95C57.2167 7.31666 57.7167 7.45 57.95 8.35C58.0833 8.88333 58.0833 9.55 57.95 10.35C57.6833 11.85 57.55 12.7167 57.55 12.95C57.55 13.1833 57.6833 13.4167 57.95 13.65C58.35 14.0167 59.0667 14.4167 60.1 14.85C60.2333 14.9167 60.4667 15.0333 60.8 15.2C61.1667 15.3333 61.4 15.4167 61.5 15.45C61.9 15.6167 62.3833 15.8 62.95 16C63.5833 16.2333 63.95 16.3833 64.05 16.45C64.15 16.5167 64.5 16.6667 65.1 16.9C65.6667 17.1 66.4833 17.45 67.55 17.95C68.5167 18.45 69.2333 18.75 69.7 18.85C70.4 19.0167 70.7333 19.2167 70.7 19.45C70.7 19.5833 70.55 19.7 70.25 19.8C70.0167 19.8667 69.1833 19.8333 67.75 19.7C66.35 19.5333 65.4333 19.3833 65 19.25C64.9333 19.2167 64.2667 19.05 63 18.75C61.8667 18.5167 60.5167 18.1333 58.95 17.6C58.8167 17.5333 58.65 17.4667 58.45 17.4C57.3167 17 56.6333 16.8167 56.4 16.85C56.2 16.85 55.9667 17.1 55.7 17.6C55.6333 17.6667 55.5833 17.7333 55.55 17.8C54.55 19.5333 53.4333 21.5667 52.2 23.9C51.1 26 50.3333 27.3333 49.9 27.9C49.5 28.4333 49.0833 28.6667 48.65 28.6C48.5167 28.5667 48.4167 28.5167 48.35 28.45C48.2833 28.35 48.2667 28.2 48.3 28C48.3333 27.8 48.4167 27.5667 48.55 27.3C48.6833 27.0333 48.8667 26.7 49.1 26.3C49.6 25.4333 50.3 23.9333 51.2 21.8C52 19.9333 52.5167 18.7167 52.75 18.15C54.1833 14.7833 55.0167 12.3333 55.25 10.8C55.4833 9.36666 55.8833 8.41666 56.45 7.95ZM74.45 20.45C75.1833 20.0833 75.7667 19.8 76.2 19.6C76.6667 19.3667 77.05 19.2167 77.35 19.15C77.65 19.05 77.8667 19.0167 78 19.05C78.1333 19.0833 78.2167 19.1833 78.25 19.35C78.2833 19.5833 77.4667 20.2833 75.8 21.45C74.1667 22.6167 72.4833 23.6667 70.75 24.6C70.65 24.6333 70.1 24.9333 69.1 25.5C68.4 25.9 68.0333 26.1 68 26.1C67.9667 26.1 67.05 26.6333 65.25 27.7C63.5833 28.7 62.0667 29.5833 60.7 30.35C57.5667 32.0833 54.3 34.0667 50.9 36.3C47.8 38.3333 46.3333 38.55 46.5 36.95C46.5333 36.8167 46.5667 36.6833 46.6 36.55C46.7 36.0167 47.55 35.1667 49.15 34C50.75 32.8333 52.7667 31.5833 55.2 30.25C55.4 30.15 55.75 29.9667 56.25 29.7C56.7833 29.4333 57.15 29.2333 57.35 29.1C57.5833 29 58.3667 28.5833 59.7 27.85C60.0333 27.65 60.8833 27.1833 62.25 26.45C63.2167 25.9167 64.6833 25.1667 66.65 24.2C68.65 23.2333 69.95 22.6167 70.55 22.35C71.4167 21.9833 72.7167 21.35 74.45 20.45ZM73.15 27.15C73.8833 26.7833 74.3833 26.6 74.65 26.6C74.95 26.5667 75.2167 26.7167 75.45 27.05C75.65 27.2833 75.7833 27.7333 75.85 28.4C75.9167 29.0667 76.0667 31.3 76.3 35.1C76.4333 37.2 76.55 38.5167 76.65 39.05C76.75 39.65 76.85 40.5667 76.95 41.8C77.0167 42.9333 77.1 43.8833 77.2 44.65C77.4 45.9167 77.5333 47.4833 77.6 49.35C77.7 51.2167 77.6833 52.2 77.55 52.3C76.9167 52.6667 76.5 51.9667 76.3 50.2C76.2667 49.9667 76.2333 49.7333 76.2 49.5C76.1333 48.5333 75.9833 47.4667 75.75 46.3C74.5833 40.6333 73.8833 35.8833 73.65 32.05C73.6167 30.9167 73.5 30.35 73.3 30.35C73.2333 30.35 73.0833 30.4333 72.85 30.6C72.55 30.8333 72.3667 30.95 72.3 30.95C72.2 30.95 71.9167 31.1 71.45 31.4C71.15 31.6333 70.2833 32.1167 68.85 32.85C68.0833 33.25 67.1333 33.75 66 34.35C64.2333 35.35 63.0667 35.9333 62.5 36.1C61.9667 36.2667 61.5833 36.15 61.35 35.75C61.0833 35.3167 61.0833 34.8333 61.35 34.3C61.65 33.7333 62.1333 33.2833 62.8 32.95C63.4 32.6167 65.8667 31.2333 70.2 28.8C70.6 28.5667 71.5833 28.0167 73.15 27.15Z" fill="black"/>
<path d="M21.6844 7.95L22.3201 8.72193L22.3213 8.72096L21.6844 7.95ZM23.1844 8.35L24.1546 8.10745L24.1524 8.09904L23.1844 8.35ZM23.1844 10.35L24.169 10.525L24.1708 10.5144L23.1844 10.35ZM23.1844 13.65L23.8601 12.9128L23.8516 12.905L23.8429 12.8974L23.1844 13.65ZM25.3344 14.85L25.7816 13.9556L25.7518 13.9407L25.7211 13.9278L25.3344 14.85ZM26.0344 15.2L25.5872 16.0944L25.6386 16.1201L25.6926 16.1398L26.0344 15.2ZM26.7344 15.45L27.119 14.5269L27.0853 14.5129L27.0506 14.5013L26.7344 15.45ZM28.1844 16L28.5301 15.0616L28.5172 15.057L28.1844 16ZM29.2844 16.45L29.8391 15.618L29.8391 15.6179L29.2844 16.45ZM30.3344 16.9L29.9719 17.832L29.9867 17.8377L30.0016 17.843L30.3344 16.9ZM32.7844 17.95L33.2438 17.0618L33.2265 17.0528L33.2088 17.0445L32.7844 17.95ZM34.9344 18.85L35.166 17.8772L35.155 17.8746L35.1439 17.8722L34.9344 18.85ZM35.9344 19.45L34.9444 19.3086L34.9344 19.3789V19.45H35.9344ZM35.4844 19.8L35.7591 20.7615L35.78 20.7556L35.8006 20.7487L35.4844 19.8ZM32.9844 19.7L32.8662 20.693L32.8789 20.6945L32.8918 20.6957L32.9844 19.7ZM30.2344 19.25L29.7872 20.1444L29.8612 20.1814L29.9403 20.2058L30.2344 19.25ZM28.2344 18.75L28.4648 17.7769L28.4505 17.7735L28.436 17.7705L28.2344 18.75ZM24.1844 17.6L23.7372 18.4944L23.7979 18.5248L23.8621 18.5466L24.1844 17.6ZM23.6844 17.4L23.3516 18.343L23.3598 18.3459L23.3681 18.3487L23.6844 17.4ZM21.6344 16.85V17.85H21.7054L21.7758 17.8399L21.6344 16.85ZM20.9344 17.6L21.6415 18.3071L21.7467 18.2019L21.8167 18.0706L20.9344 17.6ZM20.7844 17.8L21.6506 18.2997L21.6655 18.2739L21.6788 18.2472L20.7844 17.8ZM17.4344 23.9L16.5503 23.4327L16.5485 23.436L17.4344 23.9ZM15.1344 27.9L14.34 27.2925L14.3344 27.3L15.1344 27.9ZM13.8844 28.6L13.6418 29.5701L13.6867 29.5813L13.7323 29.5884L13.8844 28.6ZM13.5844 28.45L12.7523 29.0047L12.8073 29.0871L12.8773 29.1571L13.5844 28.45ZM13.5344 28L12.548 27.8356L12.548 27.8356L13.5344 28ZM13.7844 27.3L14.6788 27.7472L14.6788 27.7472L13.7844 27.3ZM14.3344 26.3L15.1982 26.8039L15.2006 26.7997L14.3344 26.3ZM16.4344 21.8L15.5152 21.4061L15.513 21.4113L16.4344 21.8ZM17.9844 18.15L17.0642 17.7583L17.0597 17.7692L17.9844 18.15ZM20.4844 10.8L19.4973 10.6393L19.4958 10.6496L20.4844 10.8ZM39.6844 20.45L39.2372 19.5556L39.2303 19.559L39.2236 19.5625L39.6844 20.45ZM41.4344 19.6L41.8534 20.508L41.8676 20.5014L41.8816 20.4944L41.4344 19.6ZM42.5844 19.15L42.8013 20.1262L42.8517 20.115L42.9006 20.0987L42.5844 19.15ZM43.2344 19.05L43.4769 18.0799L43.4769 18.0799L43.2344 19.05ZM43.4844 19.35L44.4743 19.2086L44.4704 19.1811L44.465 19.1539L43.4844 19.35ZM41.0344 21.45L40.4609 20.6307L40.4531 20.6363L41.0344 21.45ZM35.9844 24.6L36.3006 25.5487L36.3825 25.5214L36.4585 25.4805L35.9844 24.6ZM34.3344 25.5L33.8414 24.63L33.8382 24.6318L34.3344 25.5ZM30.4844 27.7L29.9746 26.8397L29.9699 26.8425L30.4844 27.7ZM25.9344 30.35L26.4184 31.225L26.4236 31.2221L25.9344 30.35ZM16.1344 36.3L16.6828 37.1362L16.6834 37.1358L16.1344 36.3ZM11.7344 36.95L10.7642 36.7075L10.7471 36.7761L10.7398 36.8464L11.7344 36.95ZM11.8344 36.55L12.8045 36.7925L12.8118 36.7636L12.8172 36.7343L11.8344 36.55ZM14.3844 34L13.7952 33.192L13.7952 33.192L14.3844 34ZM20.4344 30.25L19.9872 29.3556L19.9703 29.364L19.9538 29.373L20.4344 30.25ZM21.4844 29.7L21.0372 28.8056L21.0254 28.8115L21.0138 28.8176L21.4844 29.7ZM22.5844 29.1L22.1905 28.1809L22.1061 28.217L22.0297 28.2679L22.5844 29.1ZM24.9344 27.85L25.4163 28.7262L25.4328 28.7172L25.4489 28.7075L24.9344 27.85ZM27.4844 26.45L27.9572 27.3312L27.9675 27.3256L27.4844 26.45ZM31.8844 24.2L31.4492 23.2996L31.4433 23.3026L31.8844 24.2ZM35.7844 22.35L35.3947 21.429L35.3865 21.4325L35.3782 21.4362L35.7844 22.35ZM38.3844 27.15L37.9372 26.2556L37.9185 26.2649L37.9003 26.275L38.3844 27.15ZM39.8844 26.6V27.6H39.9398L39.9948 27.5939L39.8844 26.6ZM40.6844 27.05L39.8651 27.6235L39.8932 27.6636L39.9251 27.7008L40.6844 27.05ZM41.0844 28.4L42.0794 28.3005L42.0794 28.3005L41.0844 28.4ZM41.5344 35.1L40.5363 35.1613L40.5364 35.1634L41.5344 35.1ZM41.8844 39.05L42.8708 38.8856L42.8691 38.8756L42.8672 38.8657L41.8844 39.05ZM42.1844 41.8L43.1827 41.7413L43.182 41.7302L43.1811 41.7192L42.1844 41.8ZM42.4344 44.65L41.4428 44.7793L41.4445 44.7927L41.4466 44.806L42.4344 44.65ZM42.8344 49.35L41.835 49.3857L41.8353 49.3946L41.8358 49.4035L42.8344 49.35ZM42.7844 52.3L43.2854 53.1654L43.3368 53.1357L43.3844 53.1L42.7844 52.3ZM41.5344 50.2L42.528 50.0875L42.5264 50.073L42.5243 50.0586L41.5344 50.2ZM41.4344 49.5L40.4367 49.5688L40.4393 49.6053L40.4444 49.6414L41.4344 49.5ZM40.9844 46.3L41.965 46.1039L41.9638 46.0983L40.9844 46.3ZM38.8844 32.05L37.8848 32.0794L37.8853 32.0951L37.8862 32.1108L38.8844 32.05ZM38.0844 30.6L37.5031 29.7863L37.4865 29.7981L37.4704 29.8106L38.0844 30.6ZM36.6844 31.4L36.1436 30.5588L36.1059 30.5831L36.0704 30.6106L36.6844 31.4ZM34.0844 32.85L33.6289 31.9597L33.6218 31.9634L34.0844 32.85ZM31.2344 34.35L30.7665 33.4662L30.754 33.4728L30.7418 33.4797L31.2344 34.35ZM27.7344 36.1L27.4522 35.1406L27.4441 35.143L27.4361 35.1455L27.7344 36.1ZM26.5844 35.75L27.4482 35.2461L27.4422 35.2359L27.436 35.2259L26.5844 35.75ZM26.5844 34.3L25.7006 33.8321L25.6951 33.8424L25.6899 33.8528L26.5844 34.3ZM28.0344 32.95L28.4816 33.8444L28.501 33.8347L28.52 33.8242L28.0344 32.95ZM35.4344 28.8L35.924 29.6719L35.9312 29.6679L35.9382 29.6638L35.4344 28.8ZM21.6844 7.95L22.3213 8.72096C22.3906 8.66368 22.4478 8.62269 22.493 8.59416C22.5386 8.56539 22.5662 8.55299 22.5765 8.5489C22.5984 8.54026 22.5152 8.57817 22.3767 8.54123C22.3098 8.52338 22.2528 8.49348 22.2094 8.46093C22.168 8.42991 22.1481 8.4034 22.1439 8.39749C22.1401 8.39221 22.1485 8.40281 22.1636 8.43843C22.1785 8.47369 22.1971 8.52647 22.2164 8.60096L23.1844 8.35L24.1524 8.09904C24.0177 7.57972 23.7005 6.82435 22.892 6.60876C22.1339 6.40659 21.4655 6.83373 21.0475 7.17904L21.6844 7.95ZM23.1844 8.35L22.2142 8.59253C22.3024 8.94511 22.3186 9.46217 22.198 10.1856L23.1844 10.35L24.1708 10.5144C24.3169 9.63782 24.333 8.82155 24.1545 8.10746L23.1844 8.35ZM23.1844 10.35L22.1998 10.175C22.066 10.9279 21.9644 11.5284 21.896 11.9729C21.8332 12.3811 21.7844 12.7404 21.7844 12.95H22.7844H23.7844C23.7844 12.958 23.7855 12.9134 23.8021 12.7766C23.817 12.6539 23.8402 12.4885 23.8727 12.2771C23.9377 11.855 24.0361 11.2721 24.1689 10.525L23.1844 10.35ZM22.7844 12.95H21.7844C21.7844 13.5939 22.1552 14.0783 22.5259 14.4026L23.1844 13.65L23.8429 12.8974C23.8069 12.8659 23.7832 12.8413 23.7686 12.8242C23.754 12.8072 23.7505 12.8002 23.7526 12.8039C23.7549 12.8079 23.7633 12.8236 23.7709 12.8503C23.7787 12.8777 23.7844 12.9118 23.7844 12.95H22.7844ZM23.1844 13.65L22.5087 14.3872C23.0434 14.8773 23.8965 15.3314 24.9476 15.7722L25.3344 14.85L25.7211 13.9278C24.7056 13.5019 24.1253 13.156 23.8601 12.9128L23.1844 13.65ZM25.3344 14.85L24.8872 15.7444C25.0205 15.8111 25.2538 15.9278 25.5872 16.0944L26.0344 15.2L26.4816 14.3056C26.1483 14.1389 25.9149 14.0222 25.7816 13.9556L25.3344 14.85ZM26.0344 15.2L25.6926 16.1398C26.0552 16.2716 26.3026 16.3602 26.4182 16.3987L26.7344 15.45L27.0506 14.5013C26.9661 14.4732 26.7468 14.395 26.3761 14.2602L26.0344 15.2ZM26.7344 15.45L26.3498 16.3731C26.7719 16.549 27.2736 16.739 27.8516 16.943L28.1844 16L28.5172 15.057C27.9619 14.861 27.4968 14.6844 27.119 14.5269L26.7344 15.45ZM28.1844 16L27.8387 16.9383C28.1508 17.0533 28.3882 17.1445 28.5557 17.213C28.6398 17.2474 28.6993 17.2733 28.7383 17.2914C28.7902 17.3155 28.7726 17.3107 28.7297 17.2821L29.2844 16.45L29.8391 15.6179C29.69 15.5185 29.474 15.4278 29.313 15.362C29.1138 15.2805 28.8513 15.18 28.5301 15.0617L28.1844 16ZM29.2844 16.45L28.7297 17.282C28.8698 17.3755 29.0708 17.4643 29.228 17.5316C29.418 17.6131 29.6675 17.7136 29.9719 17.832L30.3344 16.9L30.6968 15.968C30.4013 15.8531 30.1757 15.7619 30.0158 15.6934C29.9356 15.659 29.8782 15.633 29.8401 15.6146C29.7911 15.5911 29.803 15.5939 29.8391 15.618L29.2844 16.45ZM30.3344 16.9L30.0016 17.843C30.5201 18.026 31.3006 18.3589 32.3599 18.8555L32.7844 17.95L33.2088 17.0445C32.1348 16.5411 31.282 16.174 30.6672 15.957L30.3344 16.9ZM32.7844 17.95L32.325 18.8382C33.296 19.3405 34.116 19.6973 34.7248 19.8278L34.9344 18.85L35.1439 17.8722C34.8194 17.8027 34.2061 17.5595 33.2438 17.0618L32.7844 17.95ZM34.9344 18.85L34.7028 19.8228C34.853 19.8586 34.9693 19.8928 35.0562 19.9237C35.146 19.9555 35.1865 19.9775 35.1949 19.9825C35.2093 19.9912 35.1409 19.9551 35.0684 19.8505C35.0291 19.7936 34.9876 19.7149 34.9617 19.615C34.9353 19.5133 34.9302 19.4085 34.9444 19.3086L35.9344 19.45L36.9243 19.5914C37.0298 18.853 36.4883 18.4262 36.2239 18.2675C35.924 18.0876 35.5461 17.9677 35.166 17.8772L34.9344 18.85ZM35.9344 19.45H34.9344C34.9344 19.0924 35.1482 18.8946 35.2079 18.8481C35.2623 18.8059 35.2722 18.8166 35.1681 18.8513L35.4844 19.8L35.8006 20.7487C35.9966 20.6834 36.2315 20.5858 36.4358 20.4268C36.6455 20.2637 36.9344 19.941 36.9344 19.45H35.9344ZM35.4844 19.8L35.2097 18.8385C35.2794 18.8185 35.2907 18.8278 35.1656 18.8317C35.0653 18.8349 34.9205 18.8336 34.7243 18.8258C34.3334 18.8102 33.7867 18.7703 33.077 18.7043L32.9844 19.7L32.8918 20.6957C33.6154 20.763 34.202 20.8065 34.6444 20.8242C34.8649 20.833 35.0618 20.836 35.2281 20.8308C35.3697 20.8263 35.5727 20.8148 35.7591 20.7615L35.4844 19.8ZM32.9844 19.7L33.1026 18.707C31.6849 18.5382 30.8604 18.3963 30.5285 18.2942L30.2344 19.25L29.9403 20.2058C30.475 20.3703 31.4838 20.5284 32.8662 20.693L32.9844 19.7ZM30.2344 19.25L30.6816 18.3556C30.5866 18.3081 30.4882 18.2794 30.4753 18.2755C30.4334 18.2626 30.3853 18.249 30.335 18.2352C30.2331 18.2074 30.0959 18.1721 29.9269 18.1299C29.5875 18.045 29.0993 17.9272 28.4648 17.7769L28.2344 18.75L28.0039 19.7231C28.6361 19.8728 29.1146 19.9883 29.4418 20.0701C29.6062 20.1112 29.7273 20.1425 29.8088 20.1648C29.8501 20.176 29.8749 20.1833 29.8872 20.187C29.9285 20.1997 29.8655 20.1836 29.7872 20.1444L30.2344 19.25ZM28.2344 18.75L28.436 17.7705C27.3568 17.5483 26.0491 17.1784 24.5066 16.6533L24.1844 17.6L23.8621 18.5466C25.453 19.0882 26.8453 19.485 28.0327 19.7295L28.2344 18.75ZM24.1844 17.6L24.6316 16.7056C24.4426 16.6111 24.2287 16.5274 24.0006 16.4513L23.6844 17.4L23.3681 18.3487C23.54 18.406 23.6595 18.4556 23.7372 18.4944L24.1844 17.6ZM23.6844 17.4L24.0172 16.457C23.4405 16.2535 22.9587 16.098 22.581 15.9967C22.3928 15.9461 22.2149 15.9049 22.0552 15.8787C21.9178 15.8563 21.7077 15.8294 21.493 15.86L21.6344 16.85L21.7758 17.8399C21.6777 17.854 21.6405 17.8375 21.7323 17.8525C21.8017 17.8639 21.9093 17.8872 22.0627 17.9283C22.3684 18.0103 22.7949 18.1465 23.3516 18.343L23.6844 17.4ZM21.6344 16.85V15.85C21.1142 15.85 20.7573 16.1634 20.5783 16.3552C20.3761 16.5718 20.2033 16.8458 20.052 17.1294L20.9344 17.6L21.8167 18.0706C21.8717 17.9675 21.9197 17.8873 21.9602 17.8266C22.0014 17.7647 22.0287 17.7324 22.0404 17.7198C22.0541 17.7051 22.0344 17.7304 21.9778 17.7631C21.9177 17.7978 21.7987 17.85 21.6344 17.85V16.85ZM20.9344 17.6L20.2273 16.8929C20.1038 17.0164 19.9821 17.1684 19.89 17.3528L20.7844 17.8L21.6788 18.2472C21.6533 18.2983 21.6316 18.317 21.6415 18.3071L20.9344 17.6ZM20.7844 17.8L19.9182 17.3003C18.9104 19.047 17.7877 21.0917 16.5503 23.4327L17.4344 23.9L18.3185 24.3673C19.5477 22.0417 20.6583 20.0196 21.6506 18.2997L20.7844 17.8ZM17.4344 23.9L16.5485 23.436C15.4388 25.5546 14.7116 26.8066 14.34 27.2925L15.1344 27.9L15.9287 28.5074C16.4238 27.86 17.2299 26.4454 18.3202 24.364L17.4344 23.9ZM15.1344 27.9L14.3344 27.3C14.1871 27.4963 14.0818 27.5753 14.0333 27.6025C14.012 27.6144 14.0061 27.6139 14.0138 27.6124C14.0226 27.6107 14.0318 27.6109 14.0364 27.6116L13.8844 28.6L13.7323 29.5884C14.6997 29.7372 15.4394 29.16 15.9344 28.5L15.1344 27.9ZM13.8844 28.6L14.1269 27.6299C14.1156 27.627 14.1285 27.629 14.1566 27.6431C14.1853 27.6575 14.2362 27.6876 14.2915 27.7429L13.5844 28.45L12.8773 29.1571C13.1178 29.3976 13.4083 29.5117 13.6418 29.5701L13.8844 28.6ZM13.5844 28.45L14.4164 27.8953C14.4916 28.008 14.5109 28.1079 14.5158 28.1521C14.5204 28.1938 14.5144 28.2026 14.5208 28.1644L13.5344 28L12.548 27.8356C12.4996 28.1258 12.4749 28.5886 12.7523 29.0047L13.5844 28.45ZM13.5344 28L14.5208 28.1644C14.532 28.0972 14.5711 27.9625 14.6788 27.7472L13.7844 27.3L12.8899 26.8528C12.7309 27.1708 12.6034 27.5028 12.548 27.8356L13.5344 28ZM13.7844 27.3L14.6788 27.7472C14.7988 27.5072 14.9704 27.1942 15.1982 26.8039L14.3344 26.3L13.4706 25.7961C13.2316 26.2058 13.0366 26.5595 12.8899 26.8528L13.7844 27.3ZM14.3344 26.3L15.2006 26.7997C15.7344 25.8744 16.455 24.3238 17.3557 22.1887L16.4344 21.8L15.513 21.4113C14.6138 23.5428 13.9343 24.9923 13.4682 25.8003L14.3344 26.3ZM16.4344 21.8L17.3535 22.1939C18.1528 20.3288 18.6725 19.1053 18.9091 18.5308L17.9844 18.15L17.0597 17.7692C16.8296 18.3281 16.3159 19.5378 15.5152 21.4061L16.4344 21.8ZM17.9844 18.15L18.9045 18.5417C20.3383 15.1738 21.2188 12.6209 21.473 10.9504L20.4844 10.8L19.4958 10.6496C19.2833 12.0458 18.4971 14.3929 17.0643 17.7583L17.9844 18.15ZM20.4844 10.8L21.4714 10.9607C21.6984 9.56605 22.0538 8.94122 22.3201 8.72193L21.6844 7.95L21.0487 7.17807C20.1816 7.8921 19.737 9.16728 19.4974 10.6393L20.4844 10.8ZM39.6844 20.45L40.1316 21.3444C40.8612 20.9796 41.4339 20.7016 41.8534 20.508L41.4344 19.6L41.0153 18.692C40.5682 18.8984 39.9742 19.187 39.2372 19.5556L39.6844 20.45ZM41.4344 19.6L41.8816 20.4944C42.3183 20.2761 42.6175 20.167 42.8013 20.1262L42.5844 19.15L42.3674 18.1738C41.9513 18.2663 41.4838 18.4573 40.9872 18.7056L41.4344 19.6ZM42.5844 19.15L42.9006 20.0987C42.9576 20.0797 43.005 20.0657 43.0436 20.0558C43.0826 20.0457 43.1088 20.0407 43.1239 20.0384C43.1398 20.0359 43.1367 20.0375 43.1188 20.0375C43.1018 20.0375 43.056 20.0362 42.9918 20.0201L43.2344 19.05L43.4769 18.0799C43.2273 18.0175 42.9904 18.0354 42.8198 18.0616C42.6373 18.0897 42.4504 18.1406 42.2681 18.2013L42.5844 19.15ZM43.2344 19.05L42.9918 20.0201C42.8649 19.9884 42.7306 19.9126 42.6287 19.7902C42.536 19.679 42.5101 19.5778 42.5038 19.5461L43.4844 19.35L44.465 19.1539C44.4253 18.9555 44.3411 18.721 44.1651 18.5098C43.9798 18.2874 43.7372 18.1449 43.4769 18.0799L43.2344 19.05ZM43.4844 19.35L42.4944 19.4914C42.4556 19.22 42.552 19.0328 42.5669 19.0037C42.592 18.9546 42.608 18.9411 42.584 18.9696C42.5381 19.0243 42.435 19.1288 42.2461 19.2907C41.8755 19.6084 41.2866 20.0528 40.4609 20.6308L41.0344 21.45L41.6078 22.2692C42.4489 21.6805 43.1016 21.1916 43.5477 20.8093C43.7671 20.6212 43.9661 20.434 44.116 20.2554C44.19 20.1672 44.2773 20.0516 44.3472 19.915C44.4069 19.7984 44.5214 19.5384 44.4743 19.2086L43.4844 19.35ZM41.0344 21.45L40.4531 20.6363C38.8534 21.7789 37.2058 22.8065 35.5103 23.7195L35.9844 24.6L36.4585 25.4805C38.2296 24.5268 39.9487 23.4544 41.6156 22.2637L41.0344 21.45ZM35.9844 24.6L35.6681 23.6513C35.5564 23.6886 35.4313 23.7531 35.3687 23.7852C35.2764 23.8325 35.1585 23.8955 35.018 23.9721C34.7359 24.126 34.3429 24.3458 33.8414 24.63L34.3344 25.5L34.8274 26.37C35.3259 26.0876 35.7079 25.874 35.9757 25.7279C36.1102 25.6545 36.2111 25.6008 36.2813 25.5648C36.3812 25.5136 36.3623 25.5281 36.3006 25.5487L35.9844 24.6ZM34.3344 25.5L33.8382 24.6318C33.4898 24.8309 33.23 24.977 33.0555 25.0721C32.967 25.1204 32.9086 25.1511 32.8747 25.1681C32.8562 25.1773 32.8566 25.1766 32.8686 25.1715C32.8735 25.1694 32.8959 25.1598 32.9283 25.149C32.9446 25.1435 32.9746 25.134 33.0136 25.125C33.0438 25.1181 33.1263 25.1 33.2344 25.1V26.1V27.1C33.4148 27.1 33.5557 27.048 33.5608 27.0463C33.6026 27.0324 33.6369 27.0181 33.6564 27.0098C33.6976 26.9921 33.7376 26.9727 33.7691 26.9569C33.8352 26.9239 33.9184 26.8796 34.0132 26.8279C34.2055 26.723 34.479 26.5691 34.8305 26.3682L34.3344 25.5ZM33.2344 26.1V25.1C33.0975 25.1 32.9931 25.129 32.9683 25.1358C32.9267 25.1472 32.894 25.159 32.8763 25.1657C32.8402 25.1793 32.8112 25.1925 32.797 25.1991C32.766 25.2135 32.7367 25.2286 32.7159 25.2395C32.6714 25.2628 32.6159 25.2934 32.5542 25.328C32.4286 25.3985 32.2493 25.5017 32.019 25.6357C31.5571 25.9044 30.8751 26.306 29.9746 26.8397L30.4844 27.7L30.9942 28.5603C31.8936 28.0273 32.57 27.6289 33.0248 27.3643C33.2528 27.2317 33.4214 27.1348 33.5333 27.072C33.5903 27.04 33.626 27.0205 33.645 27.0105C33.656 27.0048 33.6516 27.0074 33.6385 27.0134C33.6333 27.0158 33.6116 27.0259 33.581 27.0374C33.5661 27.0431 33.5357 27.0541 33.496 27.065C33.4731 27.0712 33.3702 27.1 33.2344 27.1V26.1ZM30.4844 27.7L29.9699 26.8425C28.3097 27.8386 26.8016 28.7169 25.4451 29.4779L25.9344 30.35L26.4236 31.2221C27.8005 30.4497 29.3257 29.5614 30.9989 28.5575L30.4844 27.7ZM25.9344 30.35L25.4503 29.475C22.2921 31.2221 19.0037 33.2188 15.5854 35.4642L16.1344 36.3L16.6834 37.1358C20.065 34.9145 23.31 32.9446 26.4184 31.225L25.9344 30.35ZM16.1344 36.3L15.5859 35.4638C14.8312 35.9589 14.1954 36.3303 13.6737 36.5873C13.1394 36.8506 12.7792 36.9663 12.5632 36.9982C12.3324 37.0323 12.4781 36.9477 12.6443 37.1246C12.7833 37.2724 12.6973 37.3574 12.729 37.0536L11.7344 36.95L10.7398 36.8464C10.6881 37.3426 10.7229 38.0005 11.1869 38.4942C11.6781 39.0169 12.353 39.051 12.8555 38.9768C13.3729 38.9003 13.9502 38.6807 14.5576 38.3814C15.1775 38.076 15.8876 37.6578 16.6828 37.1362L16.1344 36.3ZM11.7344 36.95L12.7045 37.1925C12.7379 37.0592 12.7712 36.9259 12.8045 36.7925L11.8344 36.55L10.8642 36.3075C10.8309 36.4408 10.7976 36.5741 10.7642 36.7075L11.7344 36.95ZM11.8344 36.55L12.8172 36.7343C12.8064 36.792 12.7958 36.7711 12.8743 36.6567C12.9471 36.5508 13.0679 36.4057 13.254 36.2196C13.6265 35.847 14.1923 35.3776 14.9735 34.808L14.3844 34L13.7952 33.192C12.9764 33.789 12.3172 34.328 11.8398 34.8054C11.6008 35.0443 11.3904 35.2846 11.2257 35.5245C11.0667 35.756 10.9123 36.0413 10.8515 36.3657L11.8344 36.55ZM14.3844 34L14.9735 34.808C16.5282 33.6744 18.5056 32.4472 20.9149 31.127L20.4344 30.25L19.9538 29.373C17.4965 30.7195 15.4406 31.9923 13.7952 33.192L14.3844 34ZM20.4344 30.25L20.8816 31.1444C21.0948 31.0378 21.4554 30.8488 21.955 30.5824L21.4844 29.7L21.0138 28.8176C20.5133 29.0845 20.174 29.2622 19.9872 29.3556L20.4344 30.25ZM21.4844 29.7L21.9316 30.5944C22.4636 30.3284 22.8814 30.1038 23.1391 29.932L22.5844 29.1L22.0297 28.2679C21.8873 28.3628 21.5718 28.5383 21.0372 28.8056L21.4844 29.7ZM22.5844 29.1L22.9783 30.0191C23.2692 29.8945 24.1099 29.4448 25.4163 28.7262L24.9344 27.85L24.4525 26.9738C23.0922 27.7219 22.3662 28.1055 22.1905 28.1809L22.5844 29.1ZM24.9344 27.85L25.4489 28.7075C25.757 28.5226 26.5827 28.0687 27.9572 27.3312L27.4844 26.45L27.0116 25.5688C25.6527 26.298 24.7784 26.7774 24.4199 26.9925L24.9344 27.85ZM27.4844 26.45L27.9675 27.3256C28.9127 26.8041 30.3621 26.0625 32.3255 25.0974L31.8844 24.2L31.4433 23.3026C29.4733 24.2708 27.9894 25.0293 27.0013 25.5744L27.4844 26.45ZM31.8844 24.2L32.3195 25.1003C34.3232 24.1319 35.608 23.5227 36.1905 23.2638L35.7844 22.35L35.3782 21.4362C34.7608 21.7106 33.4455 22.3348 31.4492 23.2997L31.8844 24.2ZM35.7844 22.35L36.174 23.271C37.0788 22.8882 38.4077 22.2396 40.1452 21.3375L39.6844 20.45L39.2236 19.5625C37.4944 20.4604 36.2233 21.0785 35.3947 21.429L35.7844 22.35ZM38.3844 27.15L38.8316 28.0444C39.1806 27.8699 39.4521 27.7503 39.6536 27.6764C39.8808 27.5931 39.9351 27.6 39.8844 27.6V26.6V25.6C39.567 25.6 39.238 25.6986 38.9651 25.7986C38.6666 25.9081 38.3215 26.0634 37.9372 26.2556L38.3844 27.15ZM39.8844 26.6L39.9948 27.5939C39.9702 27.5966 39.9377 27.5963 39.9015 27.5888C39.8654 27.5814 39.8373 27.5693 39.8191 27.5591C39.7862 27.5405 39.8074 27.5409 39.8651 27.6235L40.6844 27.05L41.5036 26.4765C41.1442 25.9631 40.5623 25.5185 39.7739 25.6061L39.8844 26.6ZM40.6844 27.05L39.9251 27.7008C39.8982 27.6694 39.9299 27.6923 39.9756 27.8466C40.0186 27.9919 40.0598 28.2046 40.0893 28.4995L41.0844 28.4L42.0794 28.3005C42.0422 27.9288 41.9835 27.5831 41.8932 27.2784C41.8056 26.9827 41.6706 26.664 41.4436 26.3992L40.6844 27.05ZM41.0844 28.4L40.0893 28.4995C40.1536 29.1419 40.3022 31.3499 40.5363 35.1613L41.5344 35.1L42.5325 35.0387C42.2999 31.2501 42.1485 28.9915 42.0794 28.3005L41.0844 28.4ZM41.5344 35.1L40.5364 35.1634C40.6684 37.2418 40.7878 38.6277 40.9015 39.2343L41.8844 39.05L42.8672 38.8657C42.781 38.4057 42.6671 37.1582 42.5324 35.0366L41.5344 35.1ZM41.8844 39.05L40.898 39.2144C40.9908 39.771 41.0881 40.6531 41.1876 41.8808L42.1844 41.8L43.1811 41.7192C43.0806 40.4802 42.978 39.529 42.8708 38.8856L41.8844 39.05ZM42.1844 41.8L41.1861 41.8587C41.2536 43.0058 41.3387 43.9812 41.4428 44.7793L42.4344 44.65L43.426 44.5207C43.3301 43.7855 43.2485 42.8608 43.1827 41.7413L42.1844 41.8ZM42.4344 44.65L41.4466 44.806C41.6382 46.0193 41.7692 47.5429 41.835 49.3857L42.8344 49.35L43.8337 49.3143C43.7662 47.4238 43.6306 45.814 43.4221 44.494L42.4344 44.65ZM42.8344 49.35L41.8358 49.4035C41.8855 50.3302 41.9047 51.0147 41.897 51.4706C41.8931 51.7025 41.8825 51.8462 41.872 51.9222C41.8663 51.9627 41.865 51.9516 41.8778 51.9123C41.8844 51.8918 41.9018 51.8421 41.9371 51.7794C41.9696 51.7219 42.044 51.6053 42.1844 51.5L42.7844 52.3L43.3844 53.1C43.665 52.8895 43.7572 52.6002 43.78 52.5299C43.8188 52.4103 43.8399 52.2914 43.8531 52.1965C43.88 52.0017 43.8923 51.7642 43.8967 51.5044C43.9057 50.977 43.8833 50.2365 43.8329 49.2965L42.8344 49.35ZM42.7844 52.3L42.2833 51.4346C42.2846 51.4339 42.4352 51.3529 42.6526 51.4219C42.8447 51.4829 42.8937 51.6015 42.8562 51.5385C42.8216 51.4805 42.7602 51.3429 42.6951 51.0825C42.632 50.83 42.5749 50.5012 42.528 50.0875L41.5344 50.2L40.5407 50.3125C40.6422 51.2087 40.8113 52.0134 41.1376 52.5615C41.3084 52.8485 41.5928 53.1838 42.0474 53.3281C42.5273 53.4805 42.9675 53.3495 43.2854 53.1654L42.7844 52.3ZM41.5344 50.2L42.5243 50.0586C42.491 49.8252 42.4577 49.5919 42.4243 49.3586L41.4344 49.5L40.4444 49.6414C40.4778 49.8748 40.5111 50.1081 40.5444 50.3414L41.5344 50.2ZM41.4344 49.5L42.432 49.4312C42.3618 48.4134 42.2049 47.3035 41.965 46.1039L40.9844 46.3L40.0038 46.4961C40.2305 47.6298 40.3736 48.6532 40.4367 49.5688L41.4344 49.5ZM40.9844 46.3L41.9638 46.0983C40.8025 40.4574 40.1119 35.758 39.8825 31.9892L38.8844 32.05L37.8862 32.1108C38.1235 36.0087 38.833 40.8093 40.0049 46.5017L40.9844 46.3ZM38.8844 32.05L39.8839 32.0206C39.8669 31.4399 39.8277 30.9444 39.7513 30.5733C39.715 30.3968 39.6558 30.1726 39.5417 29.9684C39.4418 29.7896 39.1348 29.35 38.5344 29.35V30.35V31.35C38.034 31.35 37.8166 30.9812 37.7958 30.9441C37.7609 30.8816 37.7704 30.8698 37.7924 30.9767C37.8327 31.1723 37.8686 31.5268 37.8848 32.0794L38.8844 32.05ZM38.5344 30.35V29.35C38.3362 29.35 38.1794 29.4055 38.1098 29.4323C38.0239 29.4653 37.9472 29.5045 37.8862 29.5383C37.7637 29.6064 37.6331 29.6934 37.5031 29.7863L38.0844 30.6L38.6656 31.4137C38.7152 31.3783 38.7564 31.3501 38.79 31.3282C38.8242 31.3059 38.8461 31.293 38.8575 31.2867C38.8716 31.2789 38.8594 31.2868 38.8277 31.299C38.811 31.3054 38.7797 31.3166 38.7371 31.3267C38.6966 31.3363 38.6257 31.35 38.5344 31.35V30.35ZM38.0844 30.6L37.4704 29.8106C37.4022 29.8638 37.3438 29.9077 37.2947 29.9432C37.245 29.9792 37.2091 30.0035 37.185 30.0188C37.1733 30.0263 37.1668 30.0301 37.165 30.0311C37.1627 30.0324 37.1693 30.0285 37.1834 30.0219C37.1957 30.0162 37.2274 30.0019 37.2737 29.9879C37.2977 29.9806 37.3309 29.9717 37.3716 29.9644C37.4117 29.9572 37.4673 29.95 37.5344 29.95V30.95V31.95C37.7841 31.95 37.9774 31.8584 38.0291 31.8343C38.1153 31.7941 38.1946 31.747 38.2588 31.7062C38.3895 31.623 38.5389 31.5134 38.6983 31.3894L38.0844 30.6ZM37.5344 30.95V29.95C37.3116 29.95 37.1281 30.0205 37.0606 30.0469C36.9635 30.0849 36.8671 30.1321 36.779 30.1787C36.6009 30.273 36.3862 30.4028 36.1436 30.5588L36.6844 31.4L37.2251 32.2412C37.4492 32.0972 37.6095 32.002 37.7148 31.9463C37.7683 31.9179 37.7906 31.9089 37.7894 31.9094C37.7883 31.9098 37.7695 31.9172 37.7373 31.9255C37.7108 31.9324 37.6367 31.95 37.5344 31.95V30.95ZM36.6844 31.4L36.0704 30.6106C35.9884 30.6744 35.7599 30.8201 35.3223 31.0641C34.9038 31.2976 34.3406 31.5956 33.6289 31.9598L34.0844 32.85L34.5399 33.7402C35.2615 33.371 35.8483 33.0608 36.2964 32.8109C36.7255 32.5716 37.0803 32.3589 37.2983 32.1894L36.6844 31.4ZM34.0844 32.85L33.6218 31.9634C32.8527 32.3647 31.9008 32.8657 30.7665 33.4662L31.2344 34.35L31.7023 35.2338C32.8346 34.6343 33.7827 34.1353 34.5469 33.7366L34.0844 32.85ZM31.2344 34.35L30.7418 33.4797C28.9478 34.4952 27.8867 35.0129 27.4522 35.1406L27.7344 36.1L28.0165 37.0594C28.7154 36.8538 29.9876 36.2048 31.727 35.2203L31.2344 34.35ZM27.7344 36.1L27.4361 35.1455C27.3654 35.1676 27.3242 35.1725 27.308 35.1734C27.2935 35.1742 27.307 35.1714 27.338 35.1808C27.3532 35.1854 27.3699 35.1922 27.3868 35.2014C27.4037 35.2105 27.4181 35.2206 27.4297 35.2304C27.4534 35.2502 27.457 35.2613 27.4482 35.2461L26.5844 35.75L25.7206 36.2539C25.9431 36.6353 26.2856 36.9511 26.7557 37.0942C27.2018 37.2299 27.6473 37.1749 28.0327 37.0545L27.7344 36.1ZM26.5844 35.75L27.436 35.2259C27.3844 35.1421 27.3356 35.0336 27.4788 34.7472L26.5844 34.3L25.6899 33.8528C25.2998 34.6331 25.251 35.4913 25.7327 36.2741L26.5844 35.75ZM26.5844 34.3L27.4682 34.7679C27.6555 34.4141 27.9701 34.1002 28.4816 33.8444L28.0344 32.95L27.5872 32.0556C26.7654 32.4665 26.1133 33.0526 25.7006 33.8321L26.5844 34.3ZM28.0344 32.95L28.52 33.8242C29.1226 33.4894 31.5921 32.1045 35.924 29.6719L35.4344 28.8L34.9448 27.9281C30.61 30.3622 28.1462 31.7439 27.5487 32.0758L28.0344 32.95ZM35.4344 28.8L35.9382 29.6638C36.3262 29.4375 37.2983 28.8936 38.8684 28.025L38.3844 27.15L37.9003 26.275C36.3371 27.1397 35.3425 27.6959 34.9305 27.9362L35.4344 28.8ZM56.45 7.95L57.0857 8.72193L57.0869 8.72096L56.45 7.95ZM57.95 8.35L58.9202 8.10745L58.918 8.09904L57.95 8.35ZM57.95 10.35L58.9346 10.525L58.9364 10.5144L57.95 10.35ZM57.95 13.65L58.6257 12.9128L58.6172 12.905L58.6085 12.8974L57.95 13.65ZM60.1 14.85L60.5472 13.9556L60.5174 13.9407L60.4867 13.9278L60.1 14.85ZM60.8 15.2L60.3528 16.0944L60.4042 16.1201L60.4583 16.1398L60.8 15.2ZM61.5 15.45L61.8846 14.5269L61.8509 14.5129L61.8162 14.5013L61.5 15.45ZM62.95 16L63.2957 15.0616L63.2828 15.057L62.95 16ZM64.05 16.45L64.6047 15.618L64.6047 15.6179L64.05 16.45ZM65.1 16.9L64.7376 17.832L64.7523 17.8377L64.7672 17.843L65.1 16.9ZM67.55 17.95L68.0094 17.0618L67.9921 17.0528L67.9744 17.0445L67.55 17.95ZM69.7 18.85L69.9316 17.8772L69.9206 17.8746L69.9095 17.8722L69.7 18.85ZM70.7 19.45L69.7101 19.3086L69.7 19.3789V19.45H70.7ZM70.25 19.8L70.5247 20.7615L70.5456 20.7556L70.5662 20.7487L70.25 19.8ZM67.75 19.7L67.6318 20.693L67.6446 20.6945L67.6574 20.6957L67.75 19.7ZM65 19.25L64.5528 20.1444L64.6268 20.1814L64.7059 20.2058L65 19.25ZM63 18.75L63.2305 17.7769L63.2161 17.7735L63.2017 17.7705L63 18.75ZM58.95 17.6L58.5028 18.4944L58.5635 18.5248L58.6277 18.5466L58.95 17.6ZM58.45 17.4L58.1172 18.343L58.1254 18.3459L58.1338 18.3487L58.45 17.4ZM56.4 16.85V17.85H56.4711L56.5414 17.8399L56.4 16.85ZM55.7 17.6L56.4071 18.3071L56.5123 18.2019L56.5824 18.0706L55.7 17.6ZM55.55 17.8L56.4162 18.2997L56.4311 18.2739L56.4444 18.2472L55.55 17.8ZM52.2 23.9L51.3159 23.4327L51.3142 23.436L52.2 23.9ZM49.9 27.9L49.1056 27.2925L49.1 27.3L49.9 27.9ZM48.65 28.6L48.4075 29.5701L48.4523 29.5813L48.4979 29.5884L48.65 28.6ZM48.35 28.45L47.518 29.0047L47.5729 29.0871L47.6429 29.1571L48.35 28.45ZM48.3 28L47.3136 27.8356L47.3136 27.8356L48.3 28ZM48.55 27.3L49.4444 27.7472L49.4444 27.7472L48.55 27.3ZM49.1 26.3L49.9638 26.8039L49.9662 26.7997L49.1 26.3ZM51.2 21.8L50.2808 21.4061L50.2786 21.4113L51.2 21.8ZM52.75 18.15L51.8299 17.7583L51.8253 17.7692L52.75 18.15ZM55.25 10.8L54.2629 10.6393L54.2614 10.6496L55.25 10.8ZM74.45 20.45L74.0028 19.5556L73.996 19.559L73.9892 19.5625L74.45 20.45ZM76.2 19.6L76.6191 20.508L76.6332 20.5014L76.6472 20.4944L76.2 19.6ZM77.35 19.15L77.5669 20.1262L77.6173 20.115L77.6662 20.0987L77.35 19.15ZM78 19.05L78.2425 18.0799L78.2425 18.0799L78 19.05ZM78.25 19.35L79.24 19.2086L79.236 19.1811L79.2306 19.1539L78.25 19.35ZM75.8 21.45L75.2265 20.6307L75.2188 20.6363L75.8 21.45ZM70.75 24.6L71.0662 25.5487L71.1481 25.5214L71.2241 25.4805L70.75 24.6ZM69.1 25.5L68.607 24.63L68.6039 24.6318L69.1 25.5ZM65.25 27.7L64.7402 26.8397L64.7355 26.8425L65.25 27.7ZM60.7 30.35L61.1841 31.225L61.1893 31.2221L60.7 30.35ZM50.9 36.3L51.4485 37.1362L51.449 37.1358L50.9 36.3ZM46.5 36.95L45.5299 36.7075L45.5127 36.7761L45.5054 36.8464L46.5 36.95ZM46.6 36.55L47.5701 36.7925L47.5774 36.7636L47.5829 36.7343L46.6 36.55ZM49.15 34L48.5608 33.192L48.5608 33.192L49.15 34ZM55.2 30.25L54.7528 29.3556L54.736 29.364L54.7195 29.373L55.2 30.25ZM56.25 29.7L55.8028 28.8056L55.791 28.8115L55.7794 28.8176L56.25 29.7ZM57.35 29.1L56.9561 28.1809L56.8717 28.217L56.7953 28.2679L57.35 29.1ZM59.7 27.85L60.1819 28.7262L60.1984 28.7172L60.2145 28.7075L59.7 27.85ZM62.25 26.45L62.7229 27.3312L62.7331 27.3256L62.25 26.45ZM66.65 24.2L66.2148 23.2996L66.2089 23.3026L66.65 24.2ZM70.55 22.35L70.1604 21.429L70.1521 21.4325L70.1439 21.4362L70.55 22.35ZM73.15 27.15L72.7028 26.2556L72.6842 26.2649L72.6659 26.275L73.15 27.15ZM74.65 26.6V27.6H74.7054L74.7604 27.5939L74.65 26.6ZM75.45 27.05L74.6308 27.6235L74.6589 27.6636L74.6907 27.7008L75.45 27.05ZM75.85 28.4L76.845 28.3005L76.845 28.3005L75.85 28.4ZM76.3 35.1L75.3019 35.1613L75.302 35.1634L76.3 35.1ZM76.65 39.05L77.6364 38.8856L77.6347 38.8756L77.6329 38.8657L76.65 39.05ZM76.95 41.8L77.9483 41.7413L77.9476 41.7302L77.9467 41.7192L76.95 41.8ZM77.2 44.65L76.2084 44.7793L76.2101 44.7927L76.2122 44.806L77.2 44.65ZM77.6 49.35L76.6006 49.3857L76.601 49.3946L76.6014 49.4035L77.6 49.35ZM77.55 52.3L78.051 53.1654L78.1025 53.1357L78.15 53.1L77.55 52.3ZM76.3 50.2L77.2937 50.0875L77.292 50.073L77.29 50.0586L76.3 50.2ZM76.2 49.5L75.2024 49.5688L75.2049 49.6053L75.2101 49.6414L76.2 49.5ZM75.75 46.3L76.7306 46.1039L76.7295 46.0983L75.75 46.3ZM73.65 32.05L72.6504 32.0794L72.6509 32.0951L72.6518 32.1108L73.65 32.05ZM72.85 30.6L72.2688 29.7863L72.2522 29.7981L72.2361 29.8106L72.85 30.6ZM71.45 31.4L70.9092 30.5588L70.8715 30.5831L70.8361 30.6106L71.45 31.4ZM68.85 32.85L68.3945 31.9597L68.3874 31.9634L68.85 32.85ZM66 34.35L65.5321 33.4662L65.5197 33.4728L65.5074 33.4797L66 34.35ZM62.5 36.1L62.2178 35.1406L62.2098 35.143L62.2017 35.1455L62.5 36.1ZM61.35 35.75L62.2138 35.2461L62.2078 35.2359L62.2017 35.2259L61.35 35.75ZM61.35 34.3L60.4662 33.8321L60.4608 33.8424L60.4556 33.8528L61.35 34.3ZM62.8 32.95L63.2472 33.8444L63.2666 33.8347L63.2856 33.8242L62.8 32.95ZM70.2 28.8L70.6896 29.6719L70.6968 29.6679L70.7039 29.6638L70.2 28.8ZM56.45 7.95L57.0869 8.72096C57.1562 8.66368 57.2134 8.62269 57.2586 8.59416C57.3042 8.56539 57.3318 8.55299 57.3422 8.5489C57.3641 8.54026 57.2808 8.57817 57.1423 8.54123C57.0754 8.52338 57.0184 8.49348 56.975 8.46093C56.9336 8.42991 56.9137 8.4034 56.9095 8.39749C56.9057 8.39221 56.9141 8.40281 56.9292 8.43843C56.9441 8.47369 56.9627 8.52647 56.982 8.60096L57.95 8.35L58.918 8.09904C58.7834 7.57972 58.4661 6.82435 57.6577 6.60876C56.8995 6.40659 56.2311 6.83373 55.8131 7.17904L56.45 7.95ZM57.95 8.35L56.9799 8.59253C57.068 8.94511 57.0842 9.46217 56.9636 10.1856L57.95 10.35L58.9364 10.5144C59.0825 9.63782 59.0987 8.82155 58.9201 8.10746L57.95 8.35ZM57.95 10.35L56.9654 10.175C56.8316 10.9279 56.73 11.5284 56.6616 11.9729C56.5988 12.3811 56.55 12.7404 56.55 12.95H57.55H58.55C58.55 12.958 58.5512 12.9134 58.5677 12.7766C58.5826 12.6539 58.6058 12.4885 58.6384 12.2771C58.7033 11.855 58.8018 11.2721 58.9346 10.525L57.95 10.35ZM57.55 12.95H56.55C56.55 13.5939 56.9209 14.0783 57.2915 14.4026L57.95 13.65L58.6085 12.8974C58.5725 12.8659 58.5489 12.8413 58.5343 12.8242C58.5197 12.8072 58.5161 12.8002 58.5182 12.8039C58.5206 12.8079 58.5289 12.8236 58.5365 12.8503C58.5444 12.8777 58.55 12.9118 58.55 12.95H57.55ZM57.95 13.65L57.2743 14.3872C57.809 14.8773 58.6621 15.3314 59.7133 15.7722L60.1 14.85L60.4867 13.9278C59.4712 13.5019 58.891 13.156 58.6257 12.9128L57.95 13.65ZM60.1 14.85L59.6528 15.7444C59.7861 15.8111 60.0195 15.9278 60.3528 16.0944L60.8 15.2L61.2472 14.3056C60.9139 14.1389 60.6806 14.0222 60.5472 13.9556L60.1 14.85ZM60.8 15.2L60.4583 16.1398C60.8209 16.2716 61.0682 16.3602 61.1838 16.3987L61.5 15.45L61.8162 14.5013C61.7318 14.4732 61.5125 14.395 61.1417 14.2602L60.8 15.2ZM61.5 15.45L61.1154 16.3731C61.5376 16.549 62.0392 16.739 62.6172 16.943L62.95 16L63.2828 15.057C62.7275 14.861 62.2624 14.6844 61.8846 14.5269L61.5 15.45ZM62.95 16L62.6043 16.9383C62.9164 17.0533 63.1539 17.1445 63.3214 17.213C63.4055 17.2474 63.4649 17.2733 63.5039 17.2914C63.5558 17.3155 63.5382 17.3107 63.4953 17.2821L64.05 16.45L64.6047 15.6179C64.4556 15.5185 64.2396 15.4278 64.0786 15.362C63.8795 15.2805 63.6169 15.18 63.2957 15.0617L62.95 16ZM64.05 16.45L63.4953 17.282C63.6354 17.3755 63.8364 17.4643 63.9936 17.5316C64.1837 17.6131 64.4331 17.7136 64.7376 17.832L65.1 16.9L65.4624 15.968C65.1669 15.8531 64.9413 15.7619 64.7814 15.6934C64.7012 15.659 64.6439 15.633 64.6057 15.6146C64.5567 15.5911 64.5687 15.5939 64.6047 15.618L64.05 16.45ZM65.1 16.9L64.7672 17.843C65.2858 18.026 66.0662 18.3589 67.1256 18.8555L67.55 17.95L67.9744 17.0445C66.9005 16.5411 66.0476 16.174 65.4328 15.957L65.1 16.9ZM67.55 17.95L67.0906 18.8382C68.0617 19.3405 68.8816 19.6973 69.4905 19.8278L69.7 18.85L69.9095 17.8722C69.585 17.8027 68.9717 17.5595 68.0094 17.0618L67.55 17.95ZM69.7 18.85L69.4684 19.8228C69.6187 19.8586 69.7349 19.8928 69.8218 19.9237C69.9116 19.9555 69.9521 19.9775 69.9605 19.9825C69.975 19.9912 69.9065 19.9551 69.8341 19.8505C69.7947 19.7936 69.7532 19.7149 69.7273 19.615C69.7009 19.5133 69.6958 19.4085 69.7101 19.3086L70.7 19.45L71.6899 19.5914C71.7954 18.853 71.2539 18.4262 70.9895 18.2675C70.6896 18.0876 70.3118 17.9677 69.9316 17.8772L69.7 18.85ZM70.7 19.45H69.7C69.7 19.0924 69.9138 18.8946 69.9736 18.8481C70.0279 18.8059 70.0378 18.8166 69.9338 18.8513L70.25 19.8L70.5662 20.7487C70.7622 20.6834 70.9971 20.5858 71.2014 20.4268C71.4112 20.2637 71.7 19.941 71.7 19.45H70.7ZM70.25 19.8L69.9753 18.8385C70.045 18.8185 70.0563 18.8278 69.9313 18.8317C69.831 18.8349 69.6862 18.8336 69.49 18.8258C69.099 18.8102 68.5524 18.7703 67.8426 18.7043L67.75 19.7L67.6574 20.6957C68.381 20.763 68.9677 20.8065 69.41 20.8242C69.6305 20.833 69.8274 20.836 69.9937 20.8308C70.1354 20.8263 70.3383 20.8148 70.5247 20.7615L70.25 19.8ZM67.75 19.7L67.8682 18.707C66.4505 18.5382 65.626 18.3963 65.2941 18.2942L65 19.25L64.7059 20.2058C65.2407 20.3703 66.2495 20.5284 67.6318 20.693L67.75 19.7ZM65 19.25L65.4472 18.3556C65.3523 18.3081 65.2538 18.2794 65.241 18.2755C65.1991 18.2626 65.1509 18.249 65.1006 18.2352C64.9987 18.2074 64.8616 18.1721 64.6925 18.1299C64.3531 18.045 63.865 17.9272 63.2305 17.7769L63 18.75L62.7695 19.7231C63.4017 19.8728 63.8802 19.9883 64.2075 20.0701C64.3718 20.1112 64.4929 20.1425 64.5744 20.1648C64.6158 20.176 64.6405 20.1833 64.6528 20.187C64.6941 20.1997 64.6311 20.1836 64.5528 20.1444L65 19.25ZM63 18.75L63.2017 17.7705C62.1224 17.5483 60.8147 17.1784 59.2723 16.6533L58.95 17.6L58.6277 18.5466C60.2186 19.0882 61.6109 19.485 62.7983 19.7295L63 18.75ZM58.95 17.6L59.3972 16.7056C59.2082 16.6111 58.9943 16.5274 58.7662 16.4513L58.45 17.4L58.1338 18.3487C58.3057 18.406 58.4251 18.4556 58.5028 18.4944L58.95 17.6ZM58.45 17.4L58.7828 16.457C58.2061 16.2535 57.7244 16.098 57.3466 15.9967C57.1584 15.9461 56.9806 15.9049 56.8209 15.8787C56.6835 15.8563 56.4733 15.8294 56.2586 15.86L56.4 16.85L56.5414 17.8399C56.4434 17.854 56.4061 17.8375 56.4979 17.8525C56.5673 17.8639 56.675 17.8872 56.8284 17.9283C57.134 18.0103 57.5606 18.1465 58.1172 18.343L58.45 17.4ZM56.4 16.85V15.85C55.8799 15.85 55.5229 16.1634 55.3439 16.3552C55.1418 16.5718 54.9689 16.8458 54.8176 17.1294L55.7 17.6L56.5824 18.0706C56.6374 17.9675 56.6853 17.8873 56.7258 17.8266C56.767 17.7647 56.7943 17.7324 56.8061 17.7198C56.8198 17.7051 56.8 17.7304 56.7435 17.7631C56.6833 17.7978 56.5643 17.85 56.4 17.85V16.85ZM55.7 17.6L54.9929 16.8929C54.8694 17.0164 54.7478 17.1684 54.6556 17.3528L55.55 17.8L56.4444 18.2472C56.4189 18.2983 56.3973 18.317 56.4071 18.3071L55.7 17.6ZM55.55 17.8L54.6838 17.3003C53.6761 19.047 52.5533 21.0917 51.3159 23.4327L52.2 23.9L53.0841 24.3673C54.3134 22.0417 55.4239 20.0196 56.4162 18.2997L55.55 17.8ZM52.2 23.9L51.3142 23.436C50.2044 25.5546 49.4772 26.8066 49.1056 27.2925L49.9 27.9L50.6944 28.5074C51.1895 27.86 51.9956 26.4454 53.0858 24.364L52.2 23.9ZM49.9 27.9L49.1 27.3C48.9527 27.4963 48.8475 27.5753 48.7989 27.6025C48.7777 27.6144 48.7718 27.6139 48.7795 27.6124C48.7882 27.6107 48.7975 27.6109 48.8021 27.6116L48.65 28.6L48.4979 29.5884C49.4653 29.7372 50.205 29.16 50.7 28.5L49.9 27.9ZM48.65 28.6L48.8925 27.6299C48.8812 27.627 48.8941 27.629 48.9222 27.6431C48.951 27.6575 49.0018 27.6876 49.0571 27.7429L48.35 28.45L47.6429 29.1571C47.8834 29.3976 48.1739 29.5117 48.4075 29.5701L48.65 28.6ZM48.35 28.45L49.1821 27.8953C49.2572 28.008 49.2765 28.1079 49.2814 28.1521C49.286 28.1938 49.28 28.2026 49.2864 28.1644L48.3 28L47.3136 27.8356C47.2652 28.1258 47.2405 28.5886 47.518 29.0047L48.35 28.45ZM48.3 28L49.2864 28.1644C49.2976 28.0972 49.3368 27.9625 49.4444 27.7472L48.55 27.3L47.6556 26.8528C47.4966 27.1708 47.3691 27.5028 47.3136 27.8356L48.3 28ZM48.55 27.3L49.4444 27.7472C49.5644 27.5072 49.7361 27.1942 49.9638 26.8039L49.1 26.3L48.2362 25.7961C47.9973 26.2058 47.8022 26.5595 47.6556 26.8528L48.55 27.3ZM49.1 26.3L49.9662 26.7997C50.5 25.8744 51.2206 24.3238 52.1214 22.1887L51.2 21.8L50.2786 21.4113C49.3794 23.5428 48.7 24.9923 48.2338 25.8003L49.1 26.3ZM51.2 21.8L52.1191 22.1939C52.9185 20.3288 53.4381 19.1053 53.6747 18.5308L52.75 18.15L51.8253 17.7692C51.5952 18.3281 51.0815 19.5378 50.2809 21.4061L51.2 21.8ZM52.75 18.15L53.6701 18.5417C55.104 15.1738 55.9844 12.6209 56.2386 10.9504L55.25 10.8L54.2614 10.6496C54.0489 12.0458 53.2627 14.3929 51.8299 17.7583L52.75 18.15ZM55.25 10.8L56.237 10.9607C56.464 9.56605 56.8194 8.94122 57.0857 8.72193L56.45 7.95L55.8143 7.17807C54.9472 7.8921 54.5026 9.16728 54.263 10.6393L55.25 10.8ZM74.45 20.45L74.8972 21.3444C75.6268 20.9796 76.1995 20.7016 76.6191 20.508L76.2 19.6L75.7809 18.692C75.3338 18.8984 74.7399 19.187 74.0028 19.5556L74.45 20.45ZM76.2 19.6L76.6472 20.4944C77.0839 20.2761 77.3831 20.167 77.5669 20.1262L77.35 19.15L77.1331 18.1738C76.7169 18.2663 76.2494 18.4573 75.7528 18.7056L76.2 19.6ZM77.35 19.15L77.6662 20.0987C77.7232 20.0797 77.7706 20.0657 77.8093 20.0558C77.8482 20.0457 77.8745 20.0407 77.8896 20.0384C77.9054 20.0359 77.9024 20.0375 77.8844 20.0375C77.8674 20.0375 77.8216 20.0362 77.7575 20.0201L78 19.05L78.2425 18.0799C77.9929 18.0175 77.7561 18.0354 77.5854 18.0616C77.4029 18.0897 77.216 18.1406 77.0338 18.2013L77.35 19.15ZM78 19.05L77.7575 20.0201C77.6306 19.9884 77.4963 19.9126 77.3943 19.7902C77.3016 19.679 77.2758 19.5778 77.2694 19.5461L78.25 19.35L79.2306 19.1539C79.1909 18.9555 79.1067 18.721 78.9307 18.5098C78.7454 18.2874 78.5028 18.1449 78.2425 18.0799L78 19.05ZM78.25 19.35L77.2601 19.4914C77.2213 19.22 77.3176 19.0328 77.3325 19.0037C77.3576 18.9546 77.3736 18.9411 77.3497 18.9696C77.3037 19.0243 77.2007 19.1288 77.0117 19.2907C76.6411 19.6084 76.0522 20.0528 75.2265 20.6308L75.8 21.45L76.3735 22.2692C77.2145 21.6805 77.8672 21.1916 78.3133 20.8093C78.5327 20.6212 78.7317 20.434 78.8816 20.2554C78.9556 20.1672 79.0429 20.0516 79.1128 19.915C79.1725 19.7984 79.2871 19.5384 79.24 19.2086L78.25 19.35ZM75.8 21.45L75.2188 20.6363C73.619 21.7789 71.9714 22.8065 70.2759 23.7195L70.75 24.6L71.2241 25.4805C72.9952 24.5268 74.7143 23.4544 76.3812 22.2637L75.8 21.45ZM70.75 24.6L70.4338 23.6513C70.322 23.6886 70.1969 23.7531 70.1343 23.7852C70.042 23.8325 69.9242 23.8955 69.7836 23.9721C69.5015 24.126 69.1085 24.3458 68.607 24.63L69.1 25.5L69.593 26.37C70.0915 26.0876 70.4735 25.874 70.7414 25.7279C70.8758 25.6545 70.9767 25.6008 71.0469 25.5648C71.1469 25.5136 71.128 25.5281 71.0662 25.5487L70.75 24.6ZM69.1 25.5L68.6039 24.6318C68.2554 24.8309 67.9956 24.977 67.8211 25.0721C67.7326 25.1204 67.6742 25.1511 67.6403 25.1681C67.6218 25.1773 67.6222 25.1766 67.6342 25.1715C67.6392 25.1694 67.6615 25.1598 67.6939 25.149C67.7102 25.1435 67.7403 25.134 67.7792 25.125C67.8094 25.1181 67.8919 25.1 68 25.1V26.1V27.1C68.1805 27.1 68.3213 27.048 68.3264 27.0463C68.3682 27.0324 68.4025 27.0181 68.422 27.0098C68.4632 26.9921 68.5032 26.9727 68.5347 26.9569C68.6008 26.9239 68.684 26.8796 68.7789 26.8279C68.9711 26.723 69.2446 26.5691 69.5961 26.3682L69.1 25.5ZM68 26.1V25.1C67.8632 25.1 67.7587 25.129 67.734 25.1358C67.6923 25.1472 67.6596 25.159 67.642 25.1657C67.6058 25.1793 67.5768 25.1925 67.5627 25.1991C67.5316 25.2135 67.5023 25.2286 67.4815 25.2395C67.437 25.2628 67.3816 25.2934 67.3198 25.328C67.1942 25.3985 67.0149 25.5017 66.7846 25.6357C66.3227 25.9044 65.6407 26.306 64.7402 26.8397L65.25 27.7L65.7598 28.5603C66.6593 28.0273 67.3356 27.6289 67.7904 27.3643C68.0184 27.2317 68.187 27.1348 68.2989 27.072C68.3559 27.04 68.3917 27.0205 68.4106 27.0105C68.4216 27.0048 68.4172 27.0074 68.4041 27.0134C68.3989 27.0158 68.3772 27.0259 68.3466 27.0374C68.3317 27.0431 68.3013 27.0541 68.2616 27.065C68.2388 27.0712 68.1358 27.1 68 27.1V26.1ZM65.25 27.7L64.7355 26.8425C63.0753 27.8386 61.5672 28.7169 60.2107 29.4779L60.7 30.35L61.1893 31.2221C62.5661 30.4497 64.0914 29.5614 65.7645 28.5575L65.25 27.7ZM60.7 30.35L60.2159 29.475C57.0577 31.2221 53.7694 33.2188 50.351 35.4642L50.9 36.3L51.449 37.1358C54.8307 34.9145 58.0756 32.9446 61.1841 31.225L60.7 30.35ZM50.9 36.3L50.3515 35.4638C49.5968 35.9589 48.961 36.3303 48.4393 36.5873C47.905 36.8506 47.5448 36.9663 47.3289 36.9982C47.098 37.0323 47.2438 36.9477 47.41 37.1246C47.5489 37.2724 47.463 37.3574 47.4946 37.0536L46.5 36.95L45.5054 36.8464C45.4537 37.3426 45.4886 38.0005 45.9525 38.4942C46.4437 39.0169 47.1186 39.051 47.6211 38.9768C48.1385 38.9003 48.7158 38.6807 49.3232 38.3814C49.9432 38.076 50.6532 37.6578 51.4485 37.1362L50.9 36.3ZM46.5 36.95L47.4701 37.1925C47.5035 37.0592 47.5368 36.9259 47.5701 36.7925L46.6 36.55L45.6299 36.3075C45.5965 36.4408 45.5632 36.5741 45.5299 36.7075L46.5 36.95ZM46.6 36.55L47.5829 36.7343C47.572 36.792 47.5614 36.7711 47.64 36.6567C47.7127 36.5508 47.8335 36.4057 48.0196 36.2196C48.3922 35.847 48.958 35.3776 49.7392 34.808L49.15 34L48.5608 33.192C47.742 33.789 47.0828 34.328 46.6054 34.8054C46.3665 35.0443 46.156 35.2846 45.9913 35.5245C45.8324 35.756 45.678 36.0413 45.6171 36.3657L46.6 36.55ZM49.15 34L49.7392 34.808C51.2938 33.6744 53.2712 32.4472 55.6805 31.127L55.2 30.25L54.7195 29.373C52.2622 30.7195 50.2062 31.9923 48.5608 33.192L49.15 34ZM55.2 30.25L55.6472 31.1444C55.8604 31.0378 56.221 30.8488 56.7206 30.5824L56.25 29.7L55.7794 28.8176C55.279 29.0845 54.9396 29.2622 54.7528 29.3556L55.2 30.25ZM56.25 29.7L56.6972 30.5944C57.2293 30.3284 57.647 30.1038 57.9047 29.932L57.35 29.1L56.7953 28.2679C56.653 28.3628 56.3374 28.5383 55.8028 28.8056L56.25 29.7ZM57.35 29.1L57.7439 30.0191C58.0349 29.8945 58.8755 29.4448 60.1819 28.7262L59.7 27.85L59.2181 26.9738C57.8578 27.7219 57.1318 28.1055 56.9561 28.1809L57.35 29.1ZM59.7 27.85L60.2145 28.7075C60.5226 28.5226 61.3483 28.0687 62.7228 27.3312L62.25 26.45L61.7772 25.5688C60.4184 26.298 59.544 26.7774 59.1855 26.9925L59.7 27.85ZM62.25 26.45L62.7331 27.3256C63.6783 26.8041 65.1277 26.0625 67.0911 25.0974L66.65 24.2L66.2089 23.3026C64.2389 24.2708 62.755 25.0293 61.7669 25.5744L62.25 26.45ZM66.65 24.2L67.0852 25.1003C69.0889 24.1319 70.3736 23.5227 70.9561 23.2638L70.55 22.35L70.1439 21.4362C69.5264 21.7106 68.2112 22.3348 66.2148 23.2997L66.65 24.2ZM70.55 22.35L70.9396 23.271C71.8444 22.8882 73.1734 22.2396 74.9108 21.3375L74.45 20.45L73.9892 19.5625C72.26 20.4604 70.9889 21.0785 70.1604 21.429L70.55 22.35ZM73.15 27.15L73.5972 28.0444C73.9462 27.8699 74.2178 27.7503 74.4193 27.6764C74.6464 27.5931 74.7007 27.6 74.65 27.6V26.6V25.6C74.3326 25.6 74.0036 25.6986 73.7307 25.7986C73.4323 25.9081 73.0872 26.0634 72.7028 26.2556L73.15 27.15ZM74.65 26.6L74.7604 27.5939C74.7359 27.5966 74.7033 27.5963 74.6671 27.5888C74.631 27.5814 74.6029 27.5693 74.5847 27.5591C74.5518 27.5405 74.573 27.5409 74.6308 27.6235L75.45 27.05L76.2692 26.4765C75.9098 25.9631 75.328 25.5185 74.5396 25.6061L74.65 26.6ZM75.45 27.05L74.6907 27.7008C74.6638 27.6694 74.6955 27.6923 74.7412 27.8466C74.7842 27.9919 74.8255 28.2046 74.855 28.4995L75.85 28.4L76.845 28.3005C76.8079 27.9288 76.7491 27.5831 76.6588 27.2784C76.5712 26.9827 76.4362 26.664 76.2093 26.3992L75.45 27.05ZM75.85 28.4L74.855 28.4995C74.9192 29.1419 75.0678 31.3499 75.3019 35.1613L76.3 35.1L77.2981 35.0387C77.0655 31.2501 76.9141 28.9915 76.845 28.3005L75.85 28.4ZM76.3 35.1L75.302 35.1634C75.434 37.2418 75.5534 38.6277 75.6671 39.2343L76.65 39.05L77.6329 38.8657C77.5466 38.4057 77.4327 37.1582 77.298 35.0366L76.3 35.1ZM76.65 39.05L75.6636 39.2144C75.7564 39.771 75.8537 40.6531 75.9533 41.8808L76.95 41.8L77.9467 41.7192C77.8463 40.4802 77.7436 39.529 77.6364 38.8856L76.65 39.05ZM76.95 41.8L75.9517 41.8587C76.0192 43.0058 76.1043 43.9812 76.2084 44.7793L77.2 44.65L78.1916 44.5207C78.0957 43.7855 78.0141 42.8608 77.9483 41.7413L76.95 41.8ZM77.2 44.65L76.2122 44.806C76.4038 46.0193 76.5348 47.5429 76.6006 49.3857L77.6 49.35L78.5994 49.3143C78.5318 47.4238 78.3962 45.814 78.1878 44.494L77.2 44.65ZM77.6 49.35L76.6014 49.4035C76.6511 50.3302 76.6704 51.0147 76.6626 51.4706C76.6587 51.7025 76.6481 51.8462 76.6376 51.9222C76.632 51.9627 76.6306 51.9516 76.6434 51.9123C76.6501 51.8918 76.6674 51.8421 76.7028 51.7794C76.7352 51.7219 76.8096 51.6053 76.95 51.5L77.55 52.3L78.15 53.1C78.4307 52.8895 78.5228 52.6002 78.5457 52.5299C78.5845 52.4103 78.6055 52.2914 78.6187 52.1965C78.6456 52.0017 78.658 51.7642 78.6624 51.5044C78.6713 50.977 78.6489 50.2365 78.5986 49.2965L77.6 49.35ZM77.55 52.3L77.049 51.4346C77.0502 51.4339 77.2008 51.3529 77.4182 51.4219C77.6103 51.4829 77.6593 51.6015 77.6218 51.5385C77.5872 51.4805 77.5259 51.3429 77.4608 51.0825C77.3977 50.83 77.3405 50.5012 77.2937 50.0875L76.3 50.2L75.3063 50.3125C75.4078 51.2087 75.577 52.0134 75.9032 52.5615C76.074 52.8485 76.3584 53.1838 76.813 53.3281C77.2929 53.4805 77.7332 53.3495 78.051 53.1654L77.55 52.3ZM76.3 50.2L77.29 50.0586C77.2566 49.8252 77.2233 49.5919 77.19 49.3586L76.2 49.5L75.2101 49.6414C75.2434 49.8748 75.2767 50.1081 75.3101 50.3414L76.3 50.2ZM76.2 49.5L77.1976 49.4312C77.1274 48.4134 76.9705 47.3035 76.7306 46.1039L75.75 46.3L74.7694 46.4961C74.9962 47.6298 75.1392 48.6532 75.2024 49.5688L76.2 49.5ZM75.75 46.3L76.7295 46.0983C75.5681 40.4574 74.8776 35.758 74.6482 31.9892L73.65 32.05L72.6518 32.1108C72.8891 36.0087 73.5986 40.8093 74.7705 46.5017L75.75 46.3ZM73.65 32.05L74.6496 32.0206C74.6325 31.4399 74.5934 30.9444 74.517 30.5733C74.4806 30.3968 74.4214 30.1726 74.3073 29.9684C74.2074 29.7896 73.9004 29.35 73.3 29.35V30.35V31.35C72.7996 31.35 72.5822 30.9812 72.5614 30.9441C72.5265 30.8816 72.5361 30.8698 72.558 30.9767C72.5983 31.1723 72.6342 31.5268 72.6504 32.0794L73.65 32.05ZM73.3 30.35V29.35C73.1018 29.35 72.945 29.4055 72.8754 29.4323C72.7895 29.4653 72.7128 29.5045 72.6519 29.5383C72.5294 29.6064 72.3987 29.6934 72.2688 29.7863L72.85 30.6L73.4312 31.4137C73.4808 31.3783 73.5221 31.3501 73.5556 31.3282C73.5899 31.3059 73.6118 31.293 73.6231 31.2867C73.6372 31.2789 73.6251 31.2868 73.5934 31.299C73.5766 31.3054 73.5454 31.3166 73.5027 31.3267C73.4623 31.3363 73.3914 31.35 73.3 31.35V30.35ZM72.85 30.6L72.2361 29.8106C72.1678 29.8638 72.1094 29.9077 72.0604 29.9432C72.0107 29.9792 71.9747 30.0035 71.9506 30.0188C71.9389 30.0263 71.9324 30.0301 71.9306 30.0311C71.9283 30.0324 71.9349 30.0285 71.949 30.0219C71.9614 30.0162 71.993 30.0019 72.0393 29.9879C72.0633 29.9806 72.0965 29.9717 72.1372 29.9644C72.1773 29.9572 72.2329 29.95 72.3 29.95V30.95V31.95C72.5497 31.95 72.743 31.8584 72.7948 31.8343C72.881 31.7941 72.9602 31.747 73.0244 31.7062C73.1551 31.623 73.3045 31.5134 73.4639 31.3894L72.85 30.6ZM72.3 30.95V29.95C72.0772 29.95 71.8937 30.0205 71.8262 30.0469C71.7292 30.0849 71.6327 30.1321 71.5446 30.1787C71.3665 30.273 71.1519 30.4028 70.9092 30.5588L71.45 31.4L71.9908 32.2412C72.2148 32.0972 72.3751 32.002 72.4804 31.9463C72.5339 31.9179 72.5563 31.9089 72.555 31.9094C72.5539 31.9098 72.5351 31.9172 72.5029 31.9255C72.4764 31.9324 72.4024 31.95 72.3 31.95V30.95ZM71.45 31.4L70.8361 30.6106C70.7541 30.6744 70.5255 30.8201 70.0879 31.0641C69.6694 31.2976 69.1062 31.5956 68.3945 31.9598L68.85 32.85L69.3055 33.7402C70.0271 33.371 70.6139 33.0608 71.0621 32.8109C71.4912 32.5716 71.8459 32.3589 72.0639 32.1894L71.45 31.4ZM68.85 32.85L68.3874 31.9634C67.6184 32.3647 66.6665 32.8657 65.5321 33.4662L66 34.35L66.4679 35.2338C67.6002 34.6343 68.5483 34.1353 69.3126 33.7366L68.85 32.85ZM66 34.35L65.5074 33.4797C63.7134 34.4952 62.6523 35.0129 62.2178 35.1406L62.5 36.1L62.7822 37.0594C63.4811 36.8538 64.7533 36.2048 66.4926 35.2203L66 34.35ZM62.5 36.1L62.2017 35.1455C62.1311 35.1676 62.0899 35.1725 62.0737 35.1734C62.0591 35.1742 62.0726 35.1714 62.1037 35.1808C62.1188 35.1854 62.1355 35.1922 62.1524 35.2014C62.1693 35.2105 62.1838 35.2206 62.1953 35.2304C62.219 35.2502 62.2226 35.2613 62.2138 35.2461L61.35 35.75L60.4862 36.2539C60.7087 36.6353 61.0512 36.9511 61.5213 37.0942C61.9674 37.2299 62.413 37.1749 62.7983 37.0545L62.5 36.1ZM61.35 35.75L62.2017 35.2259C62.1501 35.1421 62.1012 35.0336 62.2444 34.7472L61.35 34.3L60.4556 33.8528C60.0654 34.6331 60.0166 35.4913 60.4983 36.2741L61.35 35.75ZM61.35 34.3L62.2338 34.7679C62.4211 34.4141 62.7357 34.1002 63.2472 33.8444L62.8 32.95L62.3528 32.0556C61.531 32.4665 60.8789 33.0526 60.4662 33.8321L61.35 34.3ZM62.8 32.95L63.2856 33.8242C63.8882 33.4894 66.3577 32.1045 70.6896 29.6719L70.2 28.8L69.7104 27.9281C65.3756 30.3622 62.9118 31.7439 62.3144 32.0758L62.8 32.95ZM70.2 28.8L70.7039 29.6638C71.0919 29.4375 72.0639 28.8936 73.6341 28.025L73.15 27.15L72.6659 26.275C71.1028 27.1397 70.1081 27.6959 69.6961 27.9362L70.2 28.8Z" fill="white" mask="url(#path-1-outside-1_149_465)"/>
</g>
<defs>
<filter id="filter0_d_149_465" x="0.721802" y="0.556641" width="88.5292" height="66.8384" filterUnits="userSpaceOnUse" color-interpolation-filters="sRGB">
<feFlood flood-opacity="0" result="BackgroundImageFix"/>
<feColorMatrix in="SourceAlpha" type="matrix" values="0 0 0 0 0 0 0 0 0 0 0 0 0 0 0 0 0 0 127 0" result="hardAlpha"/>
<feOffset dy="4"/>
<feGaussianBlur stdDeviation="5"/>
<feComposite in2="hardAlpha" operator="out"/>
<feColorMatrix type="matrix" values="0 0 0 0 1 0 0 0 0 1 0 0 0 0 1 0 0 0 0.3 0"/>
<feBlend mode="normal" in2="BackgroundImageFix" result="effect1_dropShadow_149_465"/>
<feBlend mode="normal" in="SourceGraphic" in2="effect1_dropShadow_149_465" result="shape"/>
</filter>
</defs>
</svg>
