<svg width="240" height="140" viewBox="0 0 240 140" fill="none" xmlns="http://www.w3.org/2000/svg">
<g clip-path="url(#clip0_151_489)">
<g filter="url(#filter0_d_151_489)">
<mask id="path-1-inside-1_151_489" fill="white">
<path d="M92.4922 140C89.9479 134.769 86.4914 124.763 86.2197 114.669C96.9346 116.199 108.271 117.02 120 117.02C186.274 117.02 240 90.8239 240 58.5098C240 26.1956 186.274 0 120 0C53.7258 4.42299e-05 0 26.1956 0 58.5098C0.000148833 83.2368 31.4591 104.381 75.9268 112.947C78.8283 119.924 84.8691 131.963 92.4922 140Z"/>
</mask>
<path d="M92.4922 140C89.9479 134.769 86.4914 124.763 86.2197 114.669C96.9346 116.199 108.271 117.02 120 117.02C186.274 117.02 240 90.8239 240 58.5098C240 26.1956 186.274 0 120 0C53.7258 4.42299e-05 0 26.1956 0 58.5098C0.000148833 83.2368 31.4591 104.381 75.9268 112.947C78.8283 119.924 84.8691 131.963 92.4922 140Z" fill="#F9FBFE"/>
<path d="M92.4922 140L93.3914 139.563L91.7667 140.688L92.4922 140ZM86.2197 114.669L85.2201 114.696L85.1882 113.512L86.3611 113.679L86.2197 114.669ZM120 117.02L120 118.02L120 118.02L120 117.02ZM240 58.5098L241 58.5098L241 58.5098L240 58.5098ZM120 0L120 -1H120V0ZM0 58.5098L-1 58.5098V58.5098H0ZM75.9268 112.947L76.1159 111.965L76.6437 112.067L76.8501 112.563L75.9268 112.947ZM92.4922 140L91.5929 140.437C89.0047 135.116 85.4966 124.969 85.2201 114.696L86.2197 114.669L87.2194 114.642C87.4862 124.557 90.8911 134.422 93.3914 139.563L92.4922 140ZM86.2197 114.669L86.3611 113.679C97.0282 115.202 108.317 116.02 120 116.02L120 117.02L120 118.02C108.224 118.02 96.8411 117.195 86.0784 115.659L86.2197 114.669ZM120 117.02V116.02C153.019 116.02 182.863 109.492 204.414 98.9836C226.033 88.4425 239 74.0707 239 58.5098L240 58.5098L241 58.5098C241 75.2629 227.103 90.146 205.291 100.781C183.411 111.449 153.255 118.02 120 118.02V117.02ZM240 58.5098H239C239 42.9488 226.034 28.5769 204.415 18.0359C182.863 7.52766 153.019 1 120 1V0V-1C153.255 -1 183.412 5.57014 205.291 16.2382C227.104 26.8735 241 41.7566 241 58.5098H240ZM120 0L120 1C86.9811 1.00002 57.1373 7.52769 35.5854 18.0359C13.9664 28.577 1 42.9488 1 58.5098H0H-1C-1 41.7566 12.8965 26.8736 34.7089 16.2382C56.5885 5.57017 86.7448 -0.999978 120 -1L120 0ZM0 58.5098L1 58.5098C1.00007 70.414 8.57398 81.6174 21.8636 90.9712C35.1386 100.315 53.9759 107.7 76.1159 111.965L75.9268 112.947L75.7376 113.929C53.41 109.628 34.2839 102.159 20.7125 92.6067C7.15572 83.0649 -0.999923 71.3326 -1 58.5098L0 58.5098ZM75.9268 112.947L76.8501 112.563C79.7358 119.503 85.7204 131.408 93.2177 139.312L92.4922 140L91.7667 140.688C84.0178 132.519 77.9207 120.346 75.0034 113.331L75.9268 112.947Z" fill="black" mask="url(#path-1-inside-1_151_489)"/>
</g>
</g>
<defs>
<filter id="filter0_d_151_489" x="-20" y="-19" width="280" height="180" filterUnits="userSpaceOnUse" color-interpolation-filters="sRGB">
<feFlood flood-opacity="0" result="BackgroundImageFix"/>
<feColorMatrix in="SourceAlpha" type="matrix" values="0 0 0 0 0 0 0 0 0 0 0 0 0 0 0 0 0 0 127 0" result="hardAlpha"/>
<feOffset dy="1"/>
<feGaussianBlur stdDeviation="10"/>
<feComposite in2="hardAlpha" operator="out"/>
<feColorMatrix type="matrix" values="0 0 0 0 0 0 0 0 0 0 0 0 0 0 0 0 0 0 0.1 0"/>
<feBlend mode="normal" in2="BackgroundImageFix" result="effect1_dropShadow_151_489"/>
<feBlend mode="normal" in="SourceGraphic" in2="effect1_dropShadow_151_489" result="shape"/>
</filter>
<clipPath id="clip0_151_489">
<rect width="240" height="140" fill="white"/>
</clipPath>
</defs>
</svg>
